<svg width="27" height="25" viewBox="0 0 27 25" fill="none" xmlns="http://www.w3.org/2000/svg">
<path d="M10.5945 24V25H4.15173C3.62457 25 3.19868 24.5823 3.19868 24.0654V16.4874V15.4874H2.19868H1.9061C0.854767 15.4874 0 14.6492 0 13.6182C0 13.1217 0.202523 12.6457 0.559917 12.2952L12.8275 0.273787C12.9158 0.186997 13.0207 0.118142 13.1362 0.0711619C13.2517 0.024182 13.3755 0 13.5006 0C13.6256 0 13.7494 0.024182 13.8649 0.0711619C13.9804 0.118142 14.0853 0.186997 14.1736 0.273787L26.4412 12.2952M10.5945 24H11.5945V19.4577V18.4577H12.5945H13.9301H14.9301V19.4577V24H15.9301M10.5945 24H4.19868M10.5945 24V18.4577V17.4577H11.5945H14.9301H15.9301V18.4577V24M15.9301 24V25H22.8494C23.3765 25 23.8024 24.5823 23.8024 24.0654V16.4874V15.4874H24.8024H25.095C25.6013 15.4874 26.0868 15.2918 26.4442 14.9384C27.1858 14.2082 27.1858 13.0253 26.4412 12.2952M15.9301 24H22.8024M26.4412 12.2952L25.7413 13.0094C26.0861 13.3478 26.086 13.8877 25.7426 14.2258L25.7411 14.2273C25.5752 14.3913 25.3442 14.4874 25.095 14.4874H23.8024H22.8024V15.4874V24M26.4412 12.2952L25.741 13.0092L13.5006 1.0143M13.5006 1.0143L13.5274 0.988024L13.5283 0.987082C13.528 0.9874 13.5277 0.98771 13.5274 0.988013C13.5223 0.992787 13.5173 0.995728 13.513 0.997463C13.5085 0.999296 13.5043 1 13.5006 1C13.4968 1 13.4926 0.999296 13.4881 0.997463C13.4839 0.995726 13.4788 0.992793 13.4737 0.988023L13.5006 1.0143ZM13.5006 1.0143L1.26008 13.0092L0.559938 12.2952L1.25982 13.0094C1.091 13.1751 1 13.3951 1 13.6182C1 14.0786 1.38854 14.4874 1.9061 14.4874H3.19868H4.19868V15.4874V24M4.19868 24H4.15173C4.15684 24 4.16806 24.0031 4.17768 24.0126C4.18233 24.0171 4.18764 24.0241 4.19193 24.034C4.19652 24.0447 4.19868 24.056 4.19868 24.0654V24ZM22.8024 24V24.0654C22.8024 24.056 22.8046 24.0447 22.8092 24.034C22.8135 24.0241 22.8188 24.0171 22.8234 24.0126C22.8331 24.0031 22.8443 24 22.8494 24H22.8024Z" stroke="white" stroke-width="2"/>
</svg>
