<svg width="25" height="25" viewBox="0 0 25 25" fill="none" xmlns="http://www.w3.org/2000/svg">
<path d="M24.9913 7.42966C24.9893 7.33937 24.9771 7.24959 24.955 7.16203C24.9463 7.13076 24.9288 7.10075 24.9175 7.06948C24.8913 6.99819 24.8675 6.92816 24.83 6.86313C24.81 6.82936 24.7825 6.80184 24.7587 6.76933C24.7187 6.71305 24.68 6.65552 24.6312 6.60674C24.6025 6.57923 24.565 6.55672 24.5338 6.53046C24.485 6.49044 24.44 6.44666 24.3837 6.4129C24.3787 6.40914 24.3725 6.40914 24.3663 6.40539L24.3563 6.39789L13.1325 0.157205C12.947 0.054311 12.7385 0.00021941 12.5264 6.66092e-07C12.3143 -0.000218078 12.1057 0.0534432 11.92 0.155955L0.64375 6.39664C0.64 6.40039 0.63625 6.40539 0.63 6.40914L0.6175 6.41415C0.57375 6.43916 0.54125 6.47543 0.5 6.50544C0.455 6.53921 0.4075 6.56923 0.3675 6.608C0.33 6.64677 0.30125 6.69179 0.26875 6.73556C0.235 6.77933 0.1975 6.8181 0.17 6.86563C0.1375 6.9194 0.12 6.98069 0.0962499 7.03947C0.0787499 7.08074 0.05625 7.11951 0.045 7.16453C0.0234118 7.2505 0.0112566 7.33856 0.00874996 7.42716C0.00749996 7.44842 0 7.46718 0 7.48969V17.4973C0 17.9513 0.24625 18.3702 0.64375 18.5904L11.8663 24.8273L11.8675 24.8285L11.87 24.8298L11.895 24.8435C11.9487 24.8736 12.0075 24.8898 12.0638 24.9111C12.1038 24.9273 12.1425 24.9486 12.185 24.9599C12.3924 25.0134 12.6101 25.0134 12.8175 24.9599C12.8587 24.9486 12.8975 24.9273 12.9387 24.9111C12.995 24.8898 13.0538 24.8748 13.1075 24.8435L13.1325 24.8298L13.135 24.8285L13.1362 24.8273L24.3587 18.5904C24.7537 18.3702 25 17.9513 25 17.4973V7.48969C25 7.46843 24.9925 7.45092 24.9913 7.42966V7.42966ZM12.465 12.3347L3.8225 7.49845L7.275 5.58747L15.8175 10.4712L12.465 12.3347V12.3347ZM12.525 2.68099L21.1762 7.4922L18.3713 9.05174L9.83375 4.1705L12.525 2.68099V2.68099ZM13.75 21.6257L13.7525 14.5233L17.5 12.4247V16.2467L20 14.996V11.0252L22.5 9.62578V16.7607L13.75 21.6257Z" fill="#5B7EB8"/>
</svg>
