<svg width="30" height="25" viewBox="0 0 30 25" fill="none" xmlns="http://www.w3.org/2000/svg">
<path d="M5.62482 13.8679L5.87699 14.4947H6.55254H29V15.0514H14.4262H13.4262V16.0514V21.449C13.4262 22.5492 14.3142 23.4433 15.4179 23.4433H29V24H15.4179C14.0175 24 12.876 22.8593 12.876 21.449V16.0514V15.0514H11.876H6.55254H5.87699L5.62482 15.6781C5.26892 16.5626 4.40543 17.182 3.40024 17.182C2.07773 17.182 1 16.1052 1 14.773C1 13.4408 2.07773 12.364 3.40024 12.364C4.40543 12.364 5.26892 12.9834 5.62482 13.8679ZM13.2622 5.18524L17.6659 1.6993V3.83585V4.83585H18.6659H27.2999V5.53463H18.6659H17.6659V6.53463V8.67118L13.2622 5.18524Z" stroke="white" stroke-width="2"/>
</svg>
