<svg width="27" height="25" viewBox="0 0 27 25" fill="none" xmlns="http://www.w3.org/2000/svg">
<path d="M15.9301 25V24H14.9301V25H15.9301ZM11.5945 24H10.5945V25H11.5945V24ZM25.741 13.0092C25.7411 13.0092 25.7412 13.0093 25.7413 13.0094L26.4412 12.2952L25.741 13.0092ZM22.8024 24V24.0654C22.8024 24.056 22.8046 24.0447 22.8092 24.034C22.8135 24.0241 22.8188 24.0171 22.8234 24.0126C22.8331 24.0031 22.8443 24 22.8494 24H22.8024ZM13.4737 0.988023L13.5006 1.0143L13.5274 0.988024L13.5283 0.987083C13.528 0.9874 13.5277 0.98771 13.5274 0.988013C13.5223 0.992786 13.5173 0.995728 13.513 0.997464C13.5085 0.999296 13.5043 1 13.5006 1C13.4968 1 13.4926 0.999296 13.4881 0.997464C13.4839 0.995727 13.4788 0.992795 13.4737 0.988023ZM1.26008 13.0092L0.559979 12.2952L1.25982 13.0094L1.26008 13.0092ZM4.19868 24.0654V24H4.15173C4.15684 24 4.16806 24.0031 4.17768 24.0126C4.18233 24.0171 4.18764 24.0241 4.19193 24.034C4.19652 24.0447 4.19868 24.056 4.19868 24.0654Z" stroke="white" stroke-width="2"/>
</svg>
