<svg width="961" height="788" viewBox="0 0 961 788" fill="none" xmlns="http://www.w3.org/2000/svg">
<path opacity="0.3" d="M630.875 140.914C600.9 146.502 570.325 134.726 543.747 119.956C506.778 99.1985 473.806 72.0536 437.836 49.4994C401.865 26.9452 361.499 8.78211 319.134 8.58252C276.77 8.58252 232.207 30.3383 215.421 69.2593C197.635 110.575 214.222 158.478 206.428 202.788C194.038 274.642 121.099 324.541 108.909 396.395C101.915 437.512 116.503 480.025 139.884 514.555C189.442 588.206 282.365 631.917 370.092 618.544C426.045 609.961 477.003 580.421 519.567 543.097C561.932 505.773 596.903 460.665 631.474 415.955" fill="#2F4C8E"/>
<path opacity="0.3" d="M656.453 658.663C646.062 646.288 636.27 633.114 627.478 619.342C619.085 606.169 611.291 592.198 608.294 577.028C604.097 556.47 608.693 535.313 614.488 514.954C621.083 491.801 629.276 468.848 642.865 448.889C656.453 429.129 676.037 412.562 699.418 406.574C718.402 401.784 738.585 404.179 757.769 400.187C794.938 392.603 823.714 362.464 842.299 329.331C852.091 311.967 861.283 292.007 879.268 283.624C900.45 273.644 927.428 284.622 940.417 304.182C953.406 323.743 954.406 349.091 949.21 371.845C943.814 394.599 932.823 415.556 922.632 436.713C912.64 457.87 903.248 480.025 902.049 503.378C900.051 541.9 919.834 579.823 914.439 618.145C911.441 639.701 900.45 659.261 886.462 676.027C875.072 689.999 861.283 702.374 844.897 710.158C820.517 721.734 791.741 722.333 765.763 715.347C739.584 708.362 716.004 694.19 694.822 677.424" fill="#ABD5E6"/>
<path d="M858.285 121.952H380.283V758.859H858.285V121.952Z" fill="#5B7EB9"/>
<path opacity="0.2" d="M828.91 164.865H409.459V735.307H828.91V164.865Z" fill="#1D262D"/>
<path d="M828.91 155.085H409.459V725.527H828.91V155.085Z" fill="white"/>
<path d="M378.085 161.672V119.956H419.85L378.085 161.672Z" fill="#FFCE68"/>
<path d="M860.284 161.672V119.956H818.519L860.284 161.672Z" fill="#FFCE68"/>
<path d="M378.085 720.736V762.452H419.85L378.085 720.736Z" fill="#FFCE68"/>
<path d="M860.284 720.736V762.452H818.519L860.284 720.736Z" fill="#FFCE68"/>
<path d="M619.085 137.72C602.498 137.72 589.309 145.305 589.309 128.938V126.343C589.309 109.777 602.698 96.6038 619.085 96.6038C635.671 96.6038 648.86 109.977 648.86 126.343V128.938C649.06 145.305 635.671 137.72 619.085 137.72Z" fill="#FFCE68"/>
<path opacity="0.2" d="M697.02 161.672H541.15V175.644H697.02V161.672Z" fill="#1D262D"/>
<path d="M701.416 114.567H536.953V169.855H701.416V114.567Z" fill="#FFCE68"/>
<path opacity="0.8" d="M508.777 260.87H451.424V318.154H508.777V260.87Z" fill="#6990EB" fill-opacity="0.5"/>
<path opacity="0.8" d="M514.971 324.142H445.429V254.683H514.971V324.142ZM447.428 322.146H512.773V256.878H447.428V322.146Z" fill="#6990EB"/>
<path opacity="0.8" d="M508.777 348.692H451.424V405.975H508.777V348.692Z" fill="#6990EB" fill-opacity="0.5"/>
<path opacity="0.8" d="M514.971 411.963H445.429V342.504H514.971V411.963ZM447.428 409.967H512.773V344.7H447.428V409.967Z" fill="#6990EB"/>
<path opacity="0.8" d="M508.777 436.514H451.424V493.797H508.777V436.514Z" fill="#6990EB" fill-opacity="0.5"/>
<path opacity="0.8" d="M514.971 499.785H445.429V430.326H514.971V499.785ZM447.428 497.789H512.773V432.522H447.428V497.789Z" fill="#6990EB"/>
<path d="M475.005 309.571L441.832 276.838C439.634 274.642 439.434 270.85 441.832 268.654C444.03 266.459 447.827 266.259 450.025 268.654L474.405 292.805L513.173 250.092C515.371 247.697 518.968 247.497 521.366 249.693C523.764 251.888 523.964 255.481 521.766 257.876L475.005 309.571Z" fill="#23C5B8"/>
<path d="M475.005 397.992L441.832 365.258C439.634 363.063 439.434 359.27 441.832 357.075C444.03 354.879 447.827 354.68 450.025 357.075L474.405 381.226L513.173 338.512C515.371 336.117 518.968 335.918 521.366 338.113C523.764 340.309 523.964 343.901 521.766 346.297L475.005 397.992Z" fill="#23C5B8"/>
<path d="M475.005 484.416L441.832 451.683C439.634 449.487 439.434 445.695 441.832 443.5C444.03 441.304 447.827 441.104 450.025 443.5L474.405 467.65L513.173 424.937C515.371 422.542 518.968 422.342 521.366 424.538C523.764 426.734 523.964 430.326 521.766 432.721L475.005 484.416Z" fill="#23C5B8"/>
<path opacity="0.8" d="M508.777 524.335H451.424V581.619H508.777V524.335Z" fill="#6990EB" fill-opacity="0.5"/>
<path opacity="0.8" d="M514.971 587.607H445.429V518.148H514.971V587.607ZM447.428 585.611H512.773V520.343H447.428V585.611Z" fill="#6990EB"/>
<path d="M626.079 109.777C626.079 113.569 623.081 116.563 619.284 116.563C615.488 116.563 612.49 113.569 612.49 109.777C612.49 105.985 615.488 102.991 619.284 102.991C622.881 102.791 626.079 105.985 626.079 109.777Z" fill="white"/>
<path d="M135.487 728.92L131.491 748.281C131.491 748.281 106.711 753.67 105.312 759.258C103.914 764.847 157.269 761.055 157.269 761.055L162.864 728.92" fill="#47648F"/>
<path d="M269.576 728.92L268.976 748.281C268.976 748.281 293.755 753.67 295.154 759.258C296.553 764.847 243.198 761.055 243.198 761.055L241.999 728.92" fill="#47648F"/>
<path d="M379.284 280.231C379.284 280.231 360.9 274.443 361.299 269.253C361.699 263.864 374.089 268.255 374.089 268.255C374.089 268.255 367.294 242.907 370.092 240.911C373.089 238.915 377.486 254.683 377.486 254.683C377.486 254.683 378.285 239.314 382.282 239.514C386.278 239.713 385.479 252.088 385.479 252.088C385.479 252.088 389.875 242.308 393.872 243.905C397.669 245.501 391.274 256.28 391.274 256.28C391.274 256.28 401.266 250.691 402.665 253.286C404.263 255.88 396.47 264.862 396.47 264.862C396.47 264.862 406.062 273.844 394.472 291.209C391.274 289.811 382.282 285.62 377.486 286.618L379.284 280.231Z" fill="#FFD1BB"/>
<path d="M260.383 357.075C260.383 357.075 343.314 364.46 375.088 284.023C397.669 280.63 397.669 296.598 397.669 296.598C397.669 296.598 366.295 414.359 268.776 398.99" fill="#23C5B8"/>
<path d="M169.259 502.38C169.259 502.38 143.88 646.487 131.491 732.513C157.869 735.507 163.464 733.71 163.464 733.71L212.623 557.668C212.623 557.668 226.012 557.668 234.205 557.668C235.804 559.464 240.6 733.71 240.6 733.71C240.6 733.71 262.781 736.904 271.574 732.513C271.574 732.513 281.566 598.385 284.163 525.533L169.259 502.38Z" fill="#798EC9"/>
<path d="M239.601 353.882C239.601 353.882 211.624 355.478 204.03 362.863C196.237 370.248 179.65 421.145 169.259 502.18C210.824 545.892 284.163 525.333 284.163 525.333C284.163 525.333 287.96 377.633 283.964 370.248C276.57 356.077 239.601 353.882 239.601 353.882Z" fill="#23C5B8"/>
<path d="M58.1516 510.763L52.9559 492.6C50.7577 484.816 55.1541 476.632 63.1474 474.437L324.93 399.389L338.318 445.895L76.5363 520.942C68.5429 523.138 60.3498 518.547 58.1516 510.763Z" fill="#DD7E62"/>
<path opacity="0.43" d="M105.379 537.59L77.2917 439.737L68.6472 442.212L96.735 540.066L105.379 537.59Z" fill="white"/>
<path d="M324.93 399.389L369.892 411.564L338.119 445.895L324.93 399.389Z" fill="#FFEAAA"/>
<path d="M198.435 471.642C198.435 471.642 212.223 470.844 218.418 473.638C224.613 476.233 227.611 477.83 227.611 477.83L240 474.237C240 474.237 237.003 490.404 222.215 491.602C207.427 492.799 194.838 488.608 194.838 488.608L198.435 471.642Z" fill="#FFD1BB"/>
<path d="M223.614 356.077C223.614 356.077 136.486 361.466 129.093 438.31C124.097 491.203 197.835 493.797 197.835 493.797L201.232 470.445C201.232 470.445 170.258 457.671 170.258 438.709C170.258 419.748 203.83 405.776 203.83 405.776L223.614 356.077Z" fill="#23C5B8"/>
<path d="M240.6 352.684C225.213 352.684 210.225 358.073 210.225 358.073L246.195 388.611L275.171 356.875C275.171 356.875 265.379 352.684 240.6 352.684Z" fill="#098278"/>
<path d="M220.816 331.128C220.816 331.128 207.827 332.126 203.231 327.934C194.038 319.551 187.644 272.048 187.244 262.068C186.844 252.088 198.834 237.917 212.623 237.917C214.621 223.147 222.815 227.738 222.815 227.738C222.815 227.738 219.018 221.55 223.814 217.159C226.611 222.349 228.21 226.54 228.21 226.54C228.21 226.54 235.804 220.153 253.389 223.347C270.775 226.54 281.566 218.157 285.762 226.54C289.959 234.923 296.553 260.671 285.362 265.661C273.972 270.451 215.621 301.189 220.816 331.128Z" fill="#27305C"/>
<path d="M218.818 319.552L224.413 361.466L245.995 379.829L263.98 361.466V334.521" fill="#FFD1BB"/>
<path opacity="0.2" d="M238.002 298.993C232.806 299.193 228.21 302.785 225.812 307.376C223.414 311.967 223.014 317.356 223.214 322.545C223.414 326.737 224.014 330.928 225.612 334.92C227.611 339.71 231.407 343.702 235.604 346.696C241.199 350.688 248.193 353.283 255.188 352.485C262.182 351.686 268.776 347.495 271.374 341.108C274.172 333.922 271.574 325.539 267.377 319.152C262.581 311.767 255.188 305.58 246.395 303.783C242.598 302.985 238.402 303.185 235.604 305.979" fill="#D15579"/>
<path d="M226.811 246.3C212.423 252.487 198.635 305.979 216.62 328.932C234.605 351.886 277.769 347.495 292.956 330.13C305.146 315.759 287.161 220.552 226.811 246.3Z" fill="#FFD1BB"/>
<path d="M269.775 278.435C267.178 279.632 271.774 304.582 271.774 304.582C275.171 304.981 285.962 299.392 285.962 296.997C285.762 297.197 274.571 276.239 269.775 278.435Z" fill="#FFA690"/>
<path d="M198.834 300.989C199.034 296.798 202.631 293.604 206.428 291.808C210.225 290.011 216.22 299.791 220.417 299.592C227.211 299.193 232.806 295.8 233.606 293.205C234.205 291.209 233.606 268.056 236.603 264.862C241.599 259.274 249.992 258.874 257.586 259.074C264.979 259.074 273.572 258.675 278.368 252.887C279.367 251.489 280.367 249.893 280.566 248.296C280.966 245.701 279.767 242.907 278.168 240.711C272.573 233.127 262.382 230.732 253.189 231.131C238.002 231.929 223.614 239.514 213.822 251.09C204.03 262.667 198.834 277.836 198.635 292.806" fill="#27305C"/>
<path d="M223.014 303.584C223.014 303.584 224.813 275.641 210.425 279.633C196.037 283.624 199.434 311.767 215.82 311.168" fill="#FFD1BB"/>
<path d="M245.995 277.636C245.396 279.034 247.194 282.826 249.193 282.427C251.191 282.027 260.983 280.83 261.982 278.435C262.981 276.04 261.183 273.245 259.984 272.846C258.785 272.447 246.795 275.84 245.995 277.636Z" fill="#27305C"/>
<path d="M276.969 270.052C276.17 271.449 277.569 275.241 279.367 275.241C281.166 275.241 289.959 275.042 291.158 272.846C292.357 270.651 290.958 267.657 289.959 267.058C288.56 266.459 277.769 268.455 276.969 270.052Z" fill="#27305C"/>
<path d="M258.785 294.203C259.584 294.602 260.383 294.402 261.183 294.203C262.382 293.804 263.581 293.205 263.78 291.608C263.98 290.211 263.581 288.614 262.981 287.217C262.581 286.419 262.182 285.82 261.782 285.221C260.383 283.624 258.385 283.624 257.386 285.221C256.187 287.217 256.387 293.005 258.785 294.203Z" fill="#0A303E"/>
<path d="M283.164 288.215C283.964 288.614 284.763 288.415 285.562 288.215C286.761 287.816 287.96 287.217 288.16 285.62C288.36 284.223 287.96 282.626 287.361 281.229C286.961 280.431 286.561 279.832 286.162 279.233C284.763 277.636 282.765 277.636 281.765 279.233C280.566 281.429 280.566 287.217 283.164 288.215Z" fill="#0A303E"/>
<path d="M218.818 291.808C218.618 289.014 216.82 286.219 214.422 285.022C212.623 284.024 210.225 284.024 208.626 285.221C207.028 286.419 206.228 289.014 207.627 290.411C208.227 291.209 209.226 291.808 209.626 292.606C209.825 293.604 209.426 294.602 209.026 295.401C208.227 297.197 207.827 299.792 209.426 301.189C210.225 301.987 211.624 302.386 212.823 302.187C216.22 301.189 219.018 295.401 218.818 291.808Z" fill="#FFA690"/>
<path d="M211.224 473.639C211.224 473.639 222.815 468.449 225.612 468.05C228.61 467.651 230.009 470.246 229.209 471.842C228.41 473.439 220.217 478.229 220.217 478.229" fill="#FFD1BB"/>
<path d="M543.032 269.624C543.032 274.64 546.704 278.144 551.384 278.144C555.008 278.144 557.888 276.344 559.136 273.128H556.52C555.608 275.12 553.832 276.248 551.384 276.248C547.88 276.248 545.264 273.704 545.264 269.624C545.264 265.52 547.88 262.976 551.384 262.976C553.832 262.976 555.608 264.104 556.52 266.12H559.136C557.888 262.88 555.008 261.056 551.384 261.056C546.704 261.056 543.032 264.608 543.032 269.624ZM562.387 278H564.571V270.728C564.571 267.896 566.107 266.504 568.339 266.504C570.547 266.504 572.011 267.872 572.011 270.56V278H574.171V270.248C574.171 266.48 571.843 264.608 568.915 264.608C567.067 264.608 565.435 265.352 564.571 266.744V260.24H562.387V278ZM590.219 271.4C590.219 267.248 587.315 264.632 583.571 264.632C579.851 264.632 576.923 267.248 576.923 271.4C576.923 275.576 579.755 278.216 583.475 278.216C587.219 278.216 590.219 275.576 590.219 271.4ZM579.155 271.4C579.155 268.088 581.243 266.528 583.547 266.528C585.803 266.528 587.987 268.088 587.987 271.4C587.987 274.736 585.755 276.296 583.475 276.296C581.195 276.296 579.155 274.736 579.155 271.4ZM605.57 271.4C605.57 267.248 602.666 264.632 598.922 264.632C595.202 264.632 592.274 267.248 592.274 271.4C592.274 275.576 595.106 278.216 598.826 278.216C602.57 278.216 605.57 275.576 605.57 271.4ZM594.506 271.4C594.506 268.088 596.594 266.528 598.898 266.528C601.154 266.528 603.338 268.088 603.338 271.4C603.338 274.736 601.106 276.296 598.826 276.296C596.546 276.296 594.506 274.736 594.506 271.4ZM617.898 274.424C617.802 269.72 610.17 271.424 610.17 268.304C610.17 267.248 611.13 266.48 612.738 266.48C614.49 266.48 615.498 267.44 615.594 268.76H617.778C617.634 266.192 615.714 264.632 612.81 264.632C609.882 264.632 607.986 266.288 607.986 268.304C607.986 273.2 615.762 271.496 615.762 274.424C615.762 275.504 614.802 276.368 613.074 276.368C611.226 276.368 610.098 275.408 609.978 274.136H607.722C607.866 276.536 610.026 278.216 613.098 278.216C616.002 278.216 617.898 276.584 617.898 274.424ZM626.573 266.48C628.829 266.48 630.749 267.896 630.725 270.464H622.421C622.661 267.896 624.437 266.48 626.573 266.48ZM632.717 273.944H630.365C629.885 275.36 628.637 276.368 626.669 276.368C624.437 276.368 622.565 274.904 622.397 272.24H632.909C632.957 271.784 632.981 271.4 632.981 270.92C632.981 267.32 630.485 264.632 626.669 264.632C622.829 264.632 620.165 267.248 620.165 271.4C620.165 275.576 622.925 278.216 626.669 278.216C629.933 278.216 632.045 276.344 632.717 273.944ZM641.446 271.376C641.446 275.456 644.158 278.216 647.662 278.216C650.086 278.216 651.79 276.968 652.582 275.552V278H654.79V264.848H652.582V267.248C651.814 265.88 650.134 264.632 647.686 264.632C644.158 264.632 641.446 267.272 641.446 271.376ZM652.582 271.4C652.582 274.496 650.518 276.296 648.118 276.296C645.718 276.296 643.678 274.472 643.678 271.376C643.678 268.28 645.718 266.528 648.118 266.528C650.518 266.528 652.582 268.352 652.582 271.4ZM674.335 274.424C674.239 269.72 666.607 271.424 666.607 268.304C666.607 267.248 667.567 266.48 669.175 266.48C670.927 266.48 671.935 267.44 672.031 268.76H674.215C674.071 266.192 672.151 264.632 669.247 264.632C666.319 264.632 664.423 266.288 664.423 268.304C664.423 273.2 672.199 271.496 672.199 274.424C672.199 275.504 671.239 276.368 669.511 276.368C667.663 276.368 666.535 275.408 666.415 274.136H664.159C664.303 276.536 666.463 278.216 669.535 278.216C672.439 278.216 674.335 276.584 674.335 274.424ZM677.898 274.4C677.898 277.04 679.218 278 681.546 278H683.514V276.152H681.906C680.562 276.152 680.082 275.696 680.082 274.4V266.648H683.514V264.848H680.082V261.536H677.898V264.848H676.194V266.648H677.898V274.4ZM685.345 271.376C685.345 275.456 688.057 278.216 691.561 278.216C693.985 278.216 695.689 276.968 696.481 275.552V278H698.689V264.848H696.481V267.248C695.713 265.88 694.033 264.632 691.585 264.632C688.057 264.632 685.345 267.272 685.345 271.376ZM696.481 271.4C696.481 274.496 694.417 276.296 692.017 276.296C689.617 276.296 687.577 274.472 687.577 271.376C687.577 268.28 689.617 266.528 692.017 266.528C694.417 266.528 696.481 268.352 696.481 271.4ZM702.379 278H704.563V272.192L709.723 278H712.699L706.483 271.4L712.675 264.848H709.627L704.563 270.68V260.24H702.379V278ZM714.731 278H716.915V264.848H714.731V278ZM715.859 262.712C716.651 262.712 717.299 262.064 717.299 261.224C717.299 260.384 716.651 259.736 715.859 259.736C715.019 259.736 714.371 260.384 714.371 261.224C714.371 262.064 715.019 262.712 715.859 262.712ZM730.261 278H732.421V270.248C732.421 266.48 730.093 264.608 727.045 264.608C725.269 264.608 723.685 265.352 722.821 266.72V264.848H720.637V278H722.821V270.728C722.821 267.896 724.357 266.504 726.589 266.504C728.797 266.504 730.261 267.872 730.261 270.56V278ZM735.173 271.376C735.173 275.456 737.885 278.216 741.413 278.216C743.813 278.216 745.517 276.944 746.309 275.528V278.288C746.309 281.096 744.557 282.584 742.229 282.584C740.069 282.584 738.509 281.504 738.029 279.92H735.869C736.301 282.728 738.773 284.48 742.229 284.48C746.093 284.48 748.517 281.912 748.517 278.288V264.848H746.309V267.248C745.541 265.832 743.813 264.632 741.413 264.632C737.885 264.632 735.173 267.272 735.173 271.376ZM746.309 271.4C746.309 274.496 744.245 276.296 741.845 276.296C739.445 276.296 737.405 274.472 737.405 271.376C737.405 268.28 739.445 266.528 741.845 266.528C744.245 266.528 746.309 268.352 746.309 271.4ZM546.032 303.272V300.848H543.848V320.24H546.032V311.576C546.848 312.92 548.552 314.216 550.952 314.216C554.48 314.216 557.192 311.456 557.192 307.376C557.192 303.272 554.48 300.632 550.952 300.632C548.552 300.632 546.824 301.88 546.032 303.272ZM554.96 307.376C554.96 310.472 552.92 312.296 550.496 312.296C548.12 312.296 546.032 310.496 546.032 307.4C546.032 304.352 548.12 302.528 550.496 302.528C552.92 302.528 554.96 304.28 554.96 307.376ZM559.251 307.376C559.251 311.456 561.963 314.216 565.467 314.216C567.891 314.216 569.595 312.968 570.387 311.552V314H572.595V300.848H570.387V303.248C569.619 301.88 567.939 300.632 565.491 300.632C561.963 300.632 559.251 303.272 559.251 307.376ZM570.387 307.4C570.387 310.496 568.323 312.296 565.923 312.296C563.523 312.296 561.483 310.472 561.483 307.376C561.483 304.28 563.523 302.528 565.923 302.528C568.323 302.528 570.387 304.352 570.387 307.4ZM575.47 307.4C575.47 311.576 578.134 314.216 581.878 314.216C585.142 314.216 587.278 312.392 587.95 309.776H585.598C585.118 311.432 583.822 312.368 581.878 312.368C579.478 312.368 577.702 310.664 577.702 307.4C577.702 304.184 579.478 302.48 581.878 302.48C583.822 302.48 585.142 303.488 585.598 305.072H587.95C587.278 302.312 585.142 300.632 581.878 300.632C578.134 300.632 575.47 303.272 575.47 307.4ZM590.864 314H593.048V308.192L598.208 314H601.184L594.968 307.4L601.16 300.848H598.112L593.048 306.68V296.24H590.864V314ZM602.399 307.376C602.399 311.456 605.111 314.216 608.615 314.216C611.039 314.216 612.743 312.968 613.535 311.552V314H615.743V300.848H613.535V303.248C612.767 301.88 611.087 300.632 608.639 300.632C605.111 300.632 602.399 303.272 602.399 307.376ZM613.535 307.4C613.535 310.496 611.471 312.296 609.071 312.296C606.671 312.296 604.631 310.472 604.631 307.376C604.631 304.28 606.671 302.528 609.071 302.528C611.471 302.528 613.535 304.352 613.535 307.4ZM618.618 307.376C618.618 311.456 621.33 314.216 624.858 314.216C627.258 314.216 628.962 312.944 629.754 311.528V314.288C629.754 317.096 628.002 318.584 625.674 318.584C623.514 318.584 621.954 317.504 621.474 315.92H619.314C619.746 318.728 622.218 320.48 625.674 320.48C629.538 320.48 631.962 317.912 631.962 314.288V300.848H629.754V303.248C628.986 301.832 627.258 300.632 624.858 300.632C621.33 300.632 618.618 303.272 618.618 307.376ZM629.754 307.4C629.754 310.496 627.69 312.296 625.29 312.296C622.89 312.296 620.85 310.472 620.85 307.376C620.85 304.28 622.89 302.528 625.29 302.528C627.69 302.528 629.754 304.352 629.754 307.4ZM641.245 302.48C643.501 302.48 645.421 303.896 645.397 306.464H637.093C637.333 303.896 639.109 302.48 641.245 302.48ZM647.389 309.944H645.037C644.557 311.36 643.309 312.368 641.341 312.368C639.109 312.368 637.237 310.904 637.069 308.24H647.581C647.629 307.784 647.653 307.4 647.653 306.92C647.653 303.32 645.157 300.632 641.341 300.632C637.501 300.632 634.837 303.248 634.837 307.4C634.837 311.576 637.597 314.216 641.341 314.216C644.605 314.216 646.717 312.344 647.389 309.944Z" fill="#47648F"/>
<path d="M552.848 350.248H543.848V367H552.848V365.2H546.032V359.44H552.128V357.64H546.032V352.048H552.848V350.248ZM565.777 367H567.937V359.248C567.937 355.48 565.609 353.608 562.561 353.608C560.785 353.608 559.201 354.352 558.337 355.72V353.848H556.153V367H558.337V359.728C558.337 356.896 559.873 355.504 562.105 355.504C564.313 355.504 565.777 356.872 565.777 359.56V367ZM571.984 363.4C571.984 366.04 573.304 367 575.632 367H577.6V365.152H575.992C574.648 365.152 574.168 364.696 574.168 363.4V355.648H577.6V353.848H574.168V350.536H571.984V353.848H570.28V355.648H571.984V363.4ZM585.838 355.48C588.094 355.48 590.014 356.896 589.99 359.464H581.686C581.926 356.896 583.702 355.48 585.838 355.48ZM591.982 362.944H589.63C589.15 364.36 587.902 365.368 585.934 365.368C583.702 365.368 581.83 363.904 581.662 361.24H592.174C592.222 360.784 592.246 360.4 592.246 359.92C592.246 356.32 589.75 353.632 585.934 353.632C582.094 353.632 579.43 356.248 579.43 360.4C579.43 364.576 582.19 367.216 585.934 367.216C589.198 367.216 591.31 365.344 591.982 362.944ZM597.313 359.848C597.313 356.8 598.897 355.864 600.985 355.864H601.561V353.608C599.473 353.608 598.057 354.52 597.313 355.984V353.848H595.129V367H597.313V359.848ZM612.665 356.296V349.24H610.481V367H612.665V364.576C613.481 366.016 615.185 367.216 617.585 367.216C621.113 367.216 623.825 364.456 623.825 360.376C623.825 356.272 621.137 353.632 617.585 353.632C615.257 353.632 613.505 354.832 612.665 356.296ZM621.593 360.376C621.593 363.472 619.553 365.296 617.129 365.296C614.753 365.296 612.665 363.496 612.665 360.4C612.665 357.352 614.753 355.528 617.129 355.528C619.553 355.528 621.593 357.28 621.593 360.376ZM625.884 360.376C625.884 364.456 628.596 367.216 632.1 367.216C634.524 367.216 636.228 365.968 637.02 364.552V367H639.228V353.848H637.02V356.248C636.252 354.88 634.572 353.632 632.124 353.632C628.596 353.632 625.884 356.272 625.884 360.376ZM637.02 360.4C637.02 363.496 634.956 365.296 632.556 365.296C630.156 365.296 628.116 363.472 628.116 360.376C628.116 357.28 630.156 355.528 632.556 355.528C634.956 355.528 637.02 357.352 637.02 360.4ZM652.374 363.424C652.278 358.72 644.646 360.424 644.646 357.304C644.646 356.248 645.606 355.48 647.214 355.48C648.966 355.48 649.974 356.44 650.07 357.76H652.254C652.11 355.192 650.19 353.632 647.286 353.632C644.358 353.632 642.462 355.288 642.462 357.304C642.462 362.2 650.238 360.496 650.238 363.424C650.238 364.504 649.278 365.368 647.55 365.368C645.702 365.368 644.574 364.408 644.454 363.136H642.198C642.342 365.536 644.502 367.216 647.574 367.216C650.478 367.216 652.374 365.584 652.374 363.424ZM655.457 367H657.641V353.848H655.457V367ZM656.585 351.712C657.377 351.712 658.025 351.064 658.025 350.224C658.025 349.384 657.377 348.736 656.585 348.736C655.745 348.736 655.097 349.384 655.097 350.224C655.097 351.064 655.745 351.712 656.585 351.712ZM660.548 360.4C660.548 364.576 663.212 367.216 666.956 367.216C670.22 367.216 672.356 365.392 673.028 362.776H670.676C670.196 364.432 668.9 365.368 666.956 365.368C664.556 365.368 662.78 363.664 662.78 360.4C662.78 357.184 664.556 355.48 666.956 355.48C668.9 355.48 670.22 356.488 670.676 358.072H673.028C672.356 355.312 670.22 353.632 666.956 353.632C663.212 353.632 660.548 356.272 660.548 360.4ZM694.004 353.848H691.82V361.072C691.82 363.904 690.308 365.296 688.052 365.296C685.844 365.296 684.38 363.928 684.38 361.264V353.848H682.22V361.552C682.22 365.32 684.596 367.192 687.62 367.192C689.372 367.192 690.98 366.424 691.82 365.056V367H694.004V353.848ZM707.148 363.424C707.052 358.72 699.42 360.424 699.42 357.304C699.42 356.248 700.38 355.48 701.988 355.48C703.74 355.48 704.748 356.44 704.844 357.76H707.028C706.884 355.192 704.964 353.632 702.06 353.632C699.132 353.632 697.236 355.288 697.236 357.304C697.236 362.2 705.012 360.496 705.012 363.424C705.012 364.504 704.052 365.368 702.324 365.368C700.476 365.368 699.348 364.408 699.228 363.136H696.972C697.116 365.536 699.276 367.216 702.348 367.216C705.252 367.216 707.148 365.584 707.148 363.424ZM715.823 355.48C718.079 355.48 719.999 356.896 719.975 359.464H711.671C711.911 356.896 713.687 355.48 715.823 355.48ZM721.967 362.944H719.615C719.135 364.36 717.887 365.368 715.919 365.368C713.687 365.368 711.815 363.904 711.647 361.24H722.159C722.207 360.784 722.231 360.4 722.231 359.92C722.231 356.32 719.735 353.632 715.919 353.632C712.079 353.632 709.415 356.248 709.415 360.4C709.415 364.576 712.175 367.216 715.919 367.216C719.183 367.216 721.295 365.344 721.967 362.944ZM727.298 359.848C727.298 356.8 728.882 355.864 730.97 355.864H731.546V353.608C729.458 353.608 728.042 354.52 727.298 355.984V353.848H725.114V367H727.298V359.848ZM739.649 360.376C739.649 364.456 742.361 367.216 745.889 367.216C748.289 367.216 749.993 365.992 750.785 364.528V367H752.993V349.24H750.785V356.2C749.873 354.688 747.977 353.632 745.913 353.632C742.361 353.632 739.649 356.272 739.649 360.376ZM750.785 360.4C750.785 363.496 748.721 365.296 746.321 365.296C743.921 365.296 741.881 363.472 741.881 360.376C741.881 357.28 743.921 355.528 746.321 355.528C748.721 355.528 750.785 357.352 750.785 360.4ZM762.276 355.48C764.532 355.48 766.452 356.896 766.428 359.464H758.124C758.364 356.896 760.14 355.48 762.276 355.48ZM768.42 362.944H766.068C765.588 364.36 764.34 365.368 762.372 365.368C760.14 365.368 758.268 363.904 758.1 361.24H768.612C768.66 360.784 768.684 360.4 768.684 359.92C768.684 356.32 766.188 353.632 762.372 353.632C758.532 353.632 755.868 356.248 755.868 360.4C755.868 364.576 758.628 367.216 762.372 367.216C765.636 367.216 767.748 365.344 768.42 362.944ZM772.047 363.4C772.047 366.04 773.367 367 775.695 367H777.663V365.152H776.055C774.711 365.152 774.231 364.696 774.231 363.4V355.648H777.663V353.848H774.231V350.536H772.047V353.848H770.343V355.648H772.047V363.4ZM779.493 360.376C779.493 364.456 782.205 367.216 785.709 367.216C788.133 367.216 789.837 365.968 790.629 364.552V367H792.837V353.848H790.629V356.248C789.861 354.88 788.181 353.632 785.733 353.632C782.205 353.632 779.493 356.272 779.493 360.376ZM790.629 360.4C790.629 363.496 788.565 365.296 786.165 365.296C783.765 365.296 781.725 363.472 781.725 360.376C781.725 357.28 783.765 355.528 786.165 355.528C788.565 355.528 790.629 357.352 790.629 360.4ZM796.528 367H798.712V353.848H796.528V367ZM797.656 351.712C798.448 351.712 799.096 351.064 799.096 350.224C799.096 349.384 798.448 348.736 797.656 348.736C796.816 348.736 796.168 349.384 796.168 350.224C796.168 351.064 796.816 351.712 797.656 351.712ZM802.434 367H804.618V349.24H802.434V367ZM817.796 363.424C817.7 358.72 810.068 360.424 810.068 357.304C810.068 356.248 811.028 355.48 812.636 355.48C814.388 355.48 815.396 356.44 815.492 357.76H817.676C817.532 355.192 815.612 353.632 812.708 353.632C809.78 353.632 807.884 355.288 807.884 357.304C807.884 362.2 815.66 360.496 815.66 363.424C815.66 364.504 814.7 365.368 812.972 365.368C811.124 365.368 809.996 364.408 809.876 363.136H807.62C807.764 365.536 809.924 367.216 812.996 367.216C815.9 367.216 817.796 365.584 817.796 363.424ZM544.328 399.4C544.328 402.04 545.648 403 547.976 403H549.944V401.152H548.336C546.992 401.152 546.512 400.696 546.512 399.4V391.648H549.944V389.848H546.512V386.536H544.328V389.848H542.624V391.648H544.328V399.4ZM552.59 403H554.774V395.728C554.774 392.896 556.31 391.504 558.542 391.504C560.75 391.504 562.214 392.872 562.214 395.56V403H564.374V395.248C564.374 391.48 562.046 389.608 559.118 389.608C557.27 389.608 555.638 390.352 554.774 391.744V385.24H552.59V403ZM570.126 395.848C570.126 392.8 571.71 391.864 573.798 391.864H574.374V389.608C572.286 389.608 570.87 390.52 570.126 391.984V389.848H567.942V403H570.126V395.848ZM589.375 396.4C589.375 392.248 586.471 389.632 582.727 389.632C579.007 389.632 576.079 392.248 576.079 396.4C576.079 400.576 578.911 403.216 582.631 403.216C586.375 403.216 589.375 400.576 589.375 396.4ZM578.311 396.4C578.311 393.088 580.399 391.528 582.703 391.528C584.959 391.528 587.143 393.088 587.143 396.4C587.143 399.736 584.911 401.296 582.631 401.296C580.351 401.296 578.311 399.736 578.311 396.4ZM603.91 389.848H601.726V397.072C601.726 399.904 600.214 401.296 597.958 401.296C595.75 401.296 594.286 399.928 594.286 397.264V389.848H592.126V397.552C592.126 401.32 594.502 403.192 597.526 403.192C599.278 403.192 600.886 402.424 601.726 401.056V403H603.91V389.848ZM606.782 396.376C606.782 400.456 609.494 403.216 613.022 403.216C615.422 403.216 617.126 401.944 617.918 400.528V403.288C617.918 406.096 616.166 407.584 613.838 407.584C611.678 407.584 610.118 406.504 609.638 404.92H607.478C607.91 407.728 610.382 409.48 613.838 409.48C617.702 409.48 620.126 406.912 620.126 403.288V389.848H617.918V392.248C617.15 390.832 615.422 389.632 613.022 389.632C609.494 389.632 606.782 392.272 606.782 396.376ZM617.918 396.4C617.918 399.496 615.854 401.296 613.454 401.296C611.054 401.296 609.014 399.472 609.014 396.376C609.014 393.28 611.054 391.528 613.454 391.528C615.854 391.528 617.918 393.352 617.918 396.4ZM623.817 403H626.001V395.728C626.001 392.896 627.537 391.504 629.769 391.504C631.977 391.504 633.441 392.872 633.441 395.56V403H635.601V395.248C635.601 391.48 633.273 389.608 630.345 389.608C628.497 389.608 626.865 390.352 626.001 391.744V385.24H623.817V403ZM644.751 396.376C644.751 400.456 647.463 403.216 650.967 403.216C653.391 403.216 655.095 401.968 655.887 400.552V403H658.095V389.848H655.887V392.248C655.119 390.88 653.439 389.632 650.991 389.632C647.463 389.632 644.751 392.272 644.751 396.376ZM655.887 396.4C655.887 399.496 653.823 401.296 651.423 401.296C649.023 401.296 646.983 399.472 646.983 396.376C646.983 393.28 649.023 391.528 651.423 391.528C653.823 391.528 655.887 393.352 655.887 396.4ZM668.592 403H670.776V391.648H673.536V389.848H670.776V388.912C670.776 387.208 671.424 386.488 673.392 386.488V384.664C670.032 384.664 668.592 385.984 668.592 388.912V389.848H666.888V391.648H668.592V403ZM688.562 396.4C688.562 392.248 685.658 389.632 681.914 389.632C678.194 389.632 675.266 392.248 675.266 396.4C675.266 400.576 678.098 403.216 681.818 403.216C685.562 403.216 688.562 400.576 688.562 396.4ZM677.498 396.4C677.498 393.088 679.586 391.528 681.89 391.528C684.146 391.528 686.33 393.088 686.33 396.4C686.33 399.736 684.098 401.296 681.818 401.296C679.538 401.296 677.498 399.736 677.498 396.4ZM693.618 395.848C693.618 392.8 695.202 391.864 697.29 391.864H697.866V389.608C695.778 389.608 694.362 390.52 693.618 391.984V389.848H691.434V403H693.618V395.848ZM719.371 403H721.531V395.248C721.531 391.48 719.203 389.608 716.203 389.608C714.187 389.608 712.315 390.64 711.547 392.536C710.683 390.568 708.883 389.608 706.723 389.608C704.995 389.608 703.435 390.352 702.571 391.744V389.848H700.387V403H702.571V395.752C702.571 392.92 704.083 391.504 706.291 391.504C708.451 391.504 709.891 392.872 709.891 395.56V403H712.051V395.752C712.051 392.92 713.563 391.504 715.771 391.504C717.931 391.504 719.371 392.872 719.371 395.56V403Z" fill="#47648F"/>
<path d="M546.032 445.216V439.072H549.248C551.744 439.072 552.8 440.224 552.8 442.168C552.8 444.04 551.744 445.216 549.248 445.216H546.032ZM555.032 442.168C555.032 439.432 553.184 437.272 549.248 437.272H543.848V454H546.032V447.016H549.248C553.4 447.016 555.032 444.712 555.032 442.168ZM569.41 440.848H567.226V448.072C567.226 450.904 565.714 452.296 563.458 452.296C561.25 452.296 559.786 450.928 559.786 448.264V440.848H557.626V448.552C557.626 452.32 560.002 454.192 563.026 454.192C564.778 454.192 566.386 453.424 567.226 452.056V454H569.41V440.848ZM575.282 446.848C575.282 443.8 576.866 442.864 578.954 442.864H579.53V440.608C577.442 440.608 576.026 441.52 575.282 442.984V440.848H573.098V454H575.282V446.848ZM581.235 447.4C581.235 451.576 583.899 454.216 587.643 454.216C590.907 454.216 593.043 452.392 593.715 449.776H591.363C590.883 451.432 589.587 452.368 587.643 452.368C585.243 452.368 583.467 450.664 583.467 447.4C583.467 444.184 585.243 442.48 587.643 442.48C589.587 442.48 590.907 443.488 591.363 445.072H593.715C593.043 442.312 590.907 440.632 587.643 440.632C583.899 440.632 581.235 443.272 581.235 447.4ZM596.629 454H598.813V446.728C598.813 443.896 600.349 442.504 602.581 442.504C604.789 442.504 606.253 443.872 606.253 446.56V454H608.413V446.248C608.413 442.48 606.085 440.608 603.157 440.608C601.309 440.608 599.677 441.352 598.813 442.744V436.24H596.629V454ZM611.165 447.376C611.165 451.456 613.877 454.216 617.381 454.216C619.805 454.216 621.509 452.968 622.301 451.552V454H624.509V440.848H622.301V443.248C621.533 441.88 619.853 440.632 617.405 440.632C613.877 440.632 611.165 443.272 611.165 447.376ZM622.301 447.4C622.301 450.496 620.237 452.296 617.837 452.296C615.437 452.296 613.397 450.472 613.397 447.376C613.397 444.28 615.437 442.528 617.837 442.528C620.237 442.528 622.301 444.352 622.301 447.4ZM637.656 450.424C637.56 445.72 629.928 447.424 629.928 444.304C629.928 443.248 630.888 442.48 632.496 442.48C634.248 442.48 635.256 443.44 635.352 444.76H637.536C637.392 442.192 635.472 440.632 632.568 440.632C629.64 440.632 627.744 442.288 627.744 444.304C627.744 449.2 635.52 447.496 635.52 450.424C635.52 451.504 634.56 452.368 632.832 452.368C630.984 452.368 629.856 451.408 629.736 450.136H627.48C627.624 452.536 629.784 454.216 632.856 454.216C635.76 454.216 637.656 452.584 637.656 450.424ZM646.331 442.48C648.587 442.48 650.507 443.896 650.483 446.464H642.179C642.419 443.896 644.195 442.48 646.331 442.48ZM652.475 449.944H650.123C649.643 451.36 648.395 452.368 646.427 452.368C644.195 452.368 642.323 450.904 642.155 448.24H652.667C652.715 447.784 652.739 447.4 652.739 446.92C652.739 443.32 650.243 440.632 646.427 440.632C642.587 440.632 639.923 443.248 639.923 447.4C639.923 451.576 642.683 454.216 646.427 454.216C649.691 454.216 651.803 452.344 652.475 449.944ZM671.524 449.296C671.524 451.12 670.228 452.2 668.068 452.2H664.204V446.296H667.996C670.132 446.296 671.524 447.448 671.524 449.296ZM671.092 441.784C671.092 443.488 669.916 444.496 667.876 444.496H664.204V439.072H667.828C669.964 439.072 671.092 440.128 671.092 441.784ZM673.708 449.512C673.708 447.448 672.22 445.696 670.396 445.384C672.004 444.856 673.324 443.632 673.324 441.52C673.324 439.192 671.548 437.272 668.02 437.272H662.02V454H668.26C671.716 454 673.708 452.032 673.708 449.512ZM687.611 449.44C687.611 443.248 678.587 445.936 678.587 441.616C678.587 439.816 680.003 438.88 681.803 438.928C683.843 438.952 684.899 440.224 685.043 441.352H687.443C687.179 438.808 685.091 437.056 681.899 437.056C678.587 437.056 676.355 438.928 676.355 441.688C676.355 447.904 685.403 445.024 685.403 449.536C685.403 451.12 684.155 452.32 682.043 452.32C679.715 452.32 678.731 450.928 678.587 449.536H676.259C676.307 452.296 678.683 454.168 682.043 454.168C685.667 454.168 687.611 451.816 687.611 449.44ZM690.777 447.832C690.777 452.176 693.609 454.168 697.065 454.168C700.521 454.168 703.377 452.176 703.377 447.832V437.272H701.193V447.856C701.193 450.928 699.561 452.248 697.089 452.248C694.617 452.248 692.961 450.928 692.961 447.856V437.272H690.777V447.832ZM715.986 454H718.242L721.41 443.56L724.578 454H726.834L730.938 440.848H728.778L725.802 451.912L722.61 440.848H720.378L717.114 451.888L714.09 440.848H711.858L715.986 454ZM733.106 454H735.29V440.848H733.106V454ZM734.234 438.712C735.026 438.712 735.674 438.064 735.674 437.224C735.674 436.384 735.026 435.736 734.234 435.736C733.394 435.736 732.746 436.384 732.746 437.224C732.746 438.064 733.394 438.712 734.234 438.712ZM739.492 450.4C739.492 453.04 740.812 454 743.14 454H745.108V452.152H743.5C742.156 452.152 741.676 451.696 741.676 450.4V442.648H745.108V440.848H741.676V437.536H739.492V440.848H737.788V442.648H739.492V450.4ZM747.754 454H749.938V446.728C749.938 443.896 751.474 442.504 753.706 442.504C755.914 442.504 757.378 443.872 757.378 446.56V454H759.538V446.248C759.538 442.48 757.21 440.608 754.282 440.608C752.434 440.608 750.802 441.352 749.938 442.744V436.24H747.754V454ZM779.008 449.296C779.008 451.12 777.712 452.2 775.552 452.2H771.688V446.296H775.48C777.616 446.296 779.008 447.448 779.008 449.296ZM778.576 441.784C778.576 443.488 777.4 444.496 775.36 444.496H771.688V439.072H775.312C777.448 439.072 778.576 440.128 778.576 441.784ZM781.192 449.512C781.192 447.448 779.704 445.696 777.88 445.384C779.488 444.856 780.808 443.632 780.808 441.52C780.808 439.192 779.032 437.272 775.504 437.272H769.504V454H775.744C779.2 454 781.192 452.032 781.192 449.512ZM783.191 439.048H787.775V454H789.959V439.048H794.519V437.272H783.191V439.048ZM796.391 445.624C796.391 450.64 800.063 454.144 804.743 454.144C808.367 454.144 811.247 452.344 812.495 449.128H809.879C808.967 451.12 807.191 452.248 804.743 452.248C801.239 452.248 798.623 449.704 798.623 445.624C798.623 441.52 801.239 438.976 804.743 438.976C807.191 438.976 808.967 440.104 809.879 442.12H812.495C811.247 438.88 808.367 437.056 804.743 437.056C800.063 437.056 796.391 440.608 796.391 445.624ZM556.328 483.4C556.328 479.248 553.424 476.632 549.68 476.632C545.96 476.632 543.032 479.248 543.032 483.4C543.032 487.576 545.864 490.216 549.584 490.216C553.328 490.216 556.328 487.576 556.328 483.4ZM545.264 483.4C545.264 480.088 547.352 478.528 549.656 478.528C551.912 478.528 554.096 480.088 554.096 483.4C554.096 486.736 551.864 488.296 549.584 488.296C547.304 488.296 545.264 486.736 545.264 483.4ZM561.384 482.848C561.384 479.8 562.968 478.864 565.056 478.864H565.632V476.608C563.544 476.608 562.128 477.52 561.384 478.984V476.848H559.2V490H561.384V482.848ZM572.991 476.848L578.151 490H580.695L585.855 476.848H583.527L579.447 487.984L575.343 476.848H572.991ZM588.004 490H590.188V476.848H588.004V490ZM589.132 474.712C589.924 474.712 590.572 474.064 590.572 473.224C590.572 472.384 589.924 471.736 589.132 471.736C588.292 471.736 587.644 472.384 587.644 473.224C587.644 474.064 588.292 474.712 589.132 474.712ZM593.095 483.376C593.095 487.456 595.807 490.216 599.311 490.216C601.735 490.216 603.439 488.968 604.231 487.552V490H606.439V476.848H604.231V479.248C603.463 477.88 601.783 476.632 599.335 476.632C595.807 476.632 593.095 479.272 593.095 483.376ZM604.231 483.4C604.231 486.496 602.167 488.296 599.767 488.296C597.367 488.296 595.327 486.472 595.327 483.376C595.327 480.28 597.367 478.528 599.767 478.528C602.167 478.528 604.231 480.352 604.231 483.4ZM618.712 479.296V472.24H616.528V490H618.712V487.576C619.528 489.016 621.232 490.216 623.632 490.216C627.16 490.216 629.872 487.456 629.872 483.376C629.872 479.272 627.184 476.632 623.632 476.632C621.304 476.632 619.552 477.832 618.712 479.296ZM627.64 483.376C627.64 486.472 625.6 488.296 623.176 488.296C620.8 488.296 618.712 486.496 618.712 483.4C618.712 480.352 620.8 478.528 623.176 478.528C625.6 478.528 627.64 480.28 627.64 483.376ZM631.93 483.376C631.93 487.456 634.642 490.216 638.146 490.216C640.57 490.216 642.274 488.968 643.066 487.552V490H645.274V476.848H643.066V479.248C642.298 477.88 640.618 476.632 638.17 476.632C634.642 476.632 631.93 479.272 631.93 483.376ZM643.066 483.4C643.066 486.496 641.002 488.296 638.602 488.296C636.202 488.296 634.162 486.472 634.162 483.376C634.162 480.28 636.202 478.528 638.602 478.528C641.002 478.528 643.066 480.352 643.066 483.4ZM658.589 490H660.749V482.248C660.749 478.48 658.421 476.608 655.373 476.608C653.597 476.608 652.013 477.352 651.149 478.72V476.848H648.965V490H651.149V482.728C651.149 479.896 652.685 478.504 654.917 478.504C657.125 478.504 658.589 479.872 658.589 482.56V490ZM664.317 490H666.501V484.192L671.661 490H674.637L668.421 483.4L674.613 476.848H671.565L666.501 482.68V472.24H664.317V490ZM676.668 490H678.852V476.848H676.668V490ZM677.796 474.712C678.588 474.712 679.236 474.064 679.236 473.224C679.236 472.384 678.588 471.736 677.796 471.736C676.956 471.736 676.308 472.384 676.308 473.224C676.308 474.064 676.956 474.712 677.796 474.712ZM692.199 490H694.359V482.248C694.359 478.48 692.031 476.608 688.983 476.608C687.207 476.608 685.623 477.352 684.759 478.72V476.848H682.575V490H684.759V482.728C684.759 479.896 686.295 478.504 688.527 478.504C690.735 478.504 692.199 479.872 692.199 482.56V490ZM697.11 483.376C697.11 487.456 699.822 490.216 703.35 490.216C705.75 490.216 707.454 488.944 708.246 487.528V490.288C708.246 493.096 706.494 494.584 704.166 494.584C702.006 494.584 700.446 493.504 699.966 491.92H697.806C698.238 494.728 700.71 496.48 704.166 496.48C708.03 496.48 710.454 493.912 710.454 490.288V476.848H708.246V479.248C707.478 477.832 705.75 476.632 703.35 476.632C699.822 476.632 697.11 479.272 697.11 483.376ZM708.246 483.4C708.246 486.496 706.182 488.296 703.782 488.296C701.382 488.296 699.342 486.472 699.342 483.376C699.342 480.28 701.382 478.528 703.782 478.528C706.182 478.528 708.246 480.352 708.246 483.4ZM719.727 483.376C719.727 487.456 722.439 490.216 725.967 490.216C728.367 490.216 730.071 488.992 730.863 487.528V490H733.071V472.24H730.863V479.2C729.951 477.688 728.055 476.632 725.991 476.632C722.439 476.632 719.727 479.272 719.727 483.376ZM730.863 483.4C730.863 486.496 728.799 488.296 726.399 488.296C723.999 488.296 721.959 486.472 721.959 483.376C721.959 480.28 723.999 478.528 726.399 478.528C728.799 478.528 730.863 480.352 730.863 483.4ZM742.354 478.48C744.61 478.48 746.53 479.896 746.506 482.464H738.202C738.442 479.896 740.218 478.48 742.354 478.48ZM748.498 485.944H746.146C745.666 487.36 744.418 488.368 742.45 488.368C740.218 488.368 738.346 486.904 738.178 484.24H748.69C748.738 483.784 748.762 483.4 748.762 482.92C748.762 479.32 746.266 476.632 742.45 476.632C738.61 476.632 735.946 479.248 735.946 483.4C735.946 487.576 738.706 490.216 742.45 490.216C745.714 490.216 747.826 488.344 748.498 485.944ZM752.125 486.4C752.125 489.04 753.445 490 755.773 490H757.741V488.152H756.133C754.789 488.152 754.309 487.696 754.309 486.4V478.648H757.741V476.848H754.309V473.536H752.125V476.848H750.421V478.648H752.125V486.4ZM759.571 483.376C759.571 487.456 762.283 490.216 765.787 490.216C768.211 490.216 769.915 488.968 770.707 487.552V490H772.915V476.848H770.707V479.248C769.939 477.88 768.259 476.632 765.811 476.632C762.283 476.632 759.571 479.272 759.571 483.376ZM770.707 483.4C770.707 486.496 768.643 488.296 766.243 488.296C763.843 488.296 761.803 486.472 761.803 483.376C761.803 480.28 763.843 478.528 766.243 478.528C768.643 478.528 770.707 480.352 770.707 483.4ZM776.606 490H778.79V476.848H776.606V490ZM777.734 474.712C778.526 474.712 779.174 474.064 779.174 473.224C779.174 472.384 778.526 471.736 777.734 471.736C776.894 471.736 776.246 472.384 776.246 473.224C776.246 474.064 776.894 474.712 777.734 474.712ZM782.512 490H784.696V472.24H782.512V490ZM797.874 486.424C797.778 481.72 790.146 483.424 790.146 480.304C790.146 479.248 791.106 478.48 792.714 478.48C794.466 478.48 795.474 479.44 795.57 480.76H797.754C797.61 478.192 795.69 476.632 792.786 476.632C789.858 476.632 787.962 478.288 787.962 480.304C787.962 485.2 795.738 483.496 795.738 486.424C795.738 487.504 794.778 488.368 793.05 488.368C791.202 488.368 790.074 487.408 789.954 486.136H787.698C787.842 488.536 790.002 490.216 793.074 490.216C795.978 490.216 797.874 488.584 797.874 486.424Z" fill="#47648F"/>
<path d="M543.848 524.272V541H551.888V539.224H546.032V524.272H543.848ZM566.687 534.4C566.687 530.248 563.783 527.632 560.039 527.632C556.319 527.632 553.391 530.248 553.391 534.4C553.391 538.576 556.223 541.216 559.943 541.216C563.687 541.216 566.687 538.576 566.687 534.4ZM555.623 534.4C555.623 531.088 557.711 529.528 560.015 529.528C562.271 529.528 564.455 531.088 564.455 534.4C564.455 537.736 562.223 539.296 559.943 539.296C557.663 539.296 555.623 537.736 555.623 534.4ZM568.743 534.376C568.743 538.456 571.455 541.216 574.983 541.216C577.383 541.216 579.087 539.944 579.879 538.528V541.288C579.879 544.096 578.127 545.584 575.799 545.584C573.639 545.584 572.079 544.504 571.599 542.92H569.439C569.871 545.728 572.343 547.48 575.799 547.48C579.663 547.48 582.087 544.912 582.087 541.288V527.848H579.879V530.248C579.111 528.832 577.383 527.632 574.983 527.632C571.455 527.632 568.743 530.272 568.743 534.376ZM579.879 534.4C579.879 537.496 577.815 539.296 575.415 539.296C573.015 539.296 570.975 537.472 570.975 534.376C570.975 531.28 573.015 529.528 575.415 529.528C577.815 529.528 579.879 531.352 579.879 534.4ZM592.176 541H594.36V527.848H592.176V541ZM593.304 525.712C594.096 525.712 594.744 525.064 594.744 524.224C594.744 523.384 594.096 522.736 593.304 522.736C592.464 522.736 591.816 523.384 591.816 524.224C591.816 525.064 592.464 525.712 593.304 525.712ZM607.706 541H609.866V533.248C609.866 529.48 607.538 527.608 604.49 527.608C602.714 527.608 601.13 528.352 600.266 529.72V527.848H598.082V541H600.266V533.728C600.266 530.896 601.802 529.504 604.034 529.504C606.242 529.504 607.706 530.872 607.706 533.56V541ZM620.312 537.4C620.312 540.04 621.632 541 623.96 541H625.928V539.152H624.32C622.976 539.152 622.496 538.696 622.496 537.4V529.648H625.928V527.848H622.496V524.536H620.312V527.848H618.608V529.648H620.312V537.4ZM641.055 534.4C641.055 530.248 638.151 527.632 634.407 527.632C630.687 527.632 627.759 530.248 627.759 534.4C627.759 538.576 630.591 541.216 634.311 541.216C638.055 541.216 641.055 538.576 641.055 534.4ZM629.991 534.4C629.991 531.088 632.079 529.528 634.383 529.528C636.639 529.528 638.823 531.088 638.823 534.4C638.823 537.736 636.591 539.296 634.311 539.296C632.031 539.296 629.991 537.736 629.991 534.4ZM655.317 538.504L651.189 527.848H648.765L654.069 540.856L651.477 547.192H653.733L661.653 527.848H659.397L655.317 538.504ZM676.328 534.4C676.328 530.248 673.424 527.632 669.68 527.632C665.96 527.632 663.032 530.248 663.032 534.4C663.032 538.576 665.864 541.216 669.584 541.216C673.328 541.216 676.328 538.576 676.328 534.4ZM665.264 534.4C665.264 531.088 667.352 529.528 669.656 529.528C671.912 529.528 674.096 531.088 674.096 534.4C674.096 537.736 671.864 539.296 669.584 539.296C667.304 539.296 665.264 537.736 665.264 534.4ZM690.864 527.848H688.68V535.072C688.68 537.904 687.168 539.296 684.912 539.296C682.704 539.296 681.24 537.928 681.24 535.264V527.848H679.08V535.552C679.08 539.32 681.456 541.192 684.48 541.192C686.232 541.192 687.84 540.424 688.68 539.056V541H690.864V527.848ZM696.735 533.848C696.735 530.8 698.319 529.864 700.407 529.864H700.983V527.608C698.895 527.608 697.479 528.52 696.735 529.984V527.848H694.551V541H696.735V533.848ZM720.775 536.44C720.775 530.248 711.751 532.936 711.751 528.616C711.751 526.816 713.167 525.88 714.967 525.928C717.007 525.952 718.063 527.224 718.207 528.352H720.607C720.343 525.808 718.255 524.056 715.063 524.056C711.751 524.056 709.519 525.928 709.519 528.688C709.519 534.904 718.567 532.024 718.567 536.536C718.567 538.12 717.319 539.32 715.207 539.32C712.879 539.32 711.895 537.928 711.751 536.536H709.423C709.471 539.296 711.847 541.168 715.207 541.168C718.831 541.168 720.775 538.816 720.775 536.44ZM724.469 537.4C724.469 540.04 725.789 541 728.117 541H730.085V539.152H728.477C727.133 539.152 726.653 538.696 726.653 537.4V529.648H730.085V527.848H726.653V524.536H724.469V527.848H722.765V529.648H724.469V537.4ZM731.915 534.376C731.915 538.456 734.627 541.216 738.131 541.216C740.555 541.216 742.259 539.968 743.051 538.552V541H745.259V527.848H743.051V530.248C742.283 528.88 740.603 527.632 738.155 527.632C734.627 527.632 731.915 530.272 731.915 534.376ZM743.051 534.4C743.051 537.496 740.987 539.296 738.587 539.296C736.187 539.296 734.147 537.472 734.147 534.376C734.147 531.28 736.187 529.528 738.587 529.528C740.987 529.528 743.051 531.352 743.051 534.4ZM748.95 541H751.134V535.192L756.294 541H759.27L753.054 534.4L759.246 527.848H756.198L751.134 533.68V523.24H748.95V541ZM761.301 541H763.485V527.848H761.301V541ZM762.429 525.712C763.221 525.712 763.869 525.064 763.869 524.224C763.869 523.384 763.221 522.736 762.429 522.736C761.589 522.736 760.941 523.384 760.941 524.224C760.941 525.064 761.589 525.712 762.429 525.712ZM776.831 541H778.991V533.248C778.991 529.48 776.663 527.608 773.615 527.608C771.839 527.608 770.255 528.352 769.391 529.72V527.848H767.207V541H769.391V533.728C769.391 530.896 770.927 529.504 773.159 529.504C775.367 529.504 776.831 530.872 776.831 533.56V541ZM781.743 534.376C781.743 538.456 784.455 541.216 787.983 541.216C790.383 541.216 792.087 539.944 792.879 538.528V541.288C792.879 544.096 791.127 545.584 788.799 545.584C786.639 545.584 785.079 544.504 784.599 542.92H782.439C782.871 545.728 785.343 547.48 788.799 547.48C792.663 547.48 795.087 544.912 795.087 541.288V527.848H792.879V530.248C792.111 528.832 790.383 527.632 787.983 527.632C784.455 527.632 781.743 530.272 781.743 534.376ZM792.879 534.4C792.879 537.496 790.815 539.296 788.415 539.296C786.015 539.296 783.975 537.472 783.975 534.376C783.975 531.28 786.015 529.528 788.415 529.528C790.815 529.528 792.879 531.352 792.879 534.4ZM549.056 560.272H543.848V577H549.056C554.552 577 557.936 573.856 557.936 568.672C557.936 563.488 554.552 560.272 549.056 560.272ZM546.032 575.2V562.048H549.056C553.424 562.048 555.704 564.592 555.704 568.672C555.704 572.752 553.424 575.2 549.056 575.2H546.032ZM560.001 570.376C560.001 574.456 562.713 577.216 566.217 577.216C568.641 577.216 570.345 575.968 571.137 574.552V577H573.345V563.848H571.137V566.248C570.369 564.88 568.689 563.632 566.241 563.632C562.713 563.632 560.001 566.272 560.001 570.376ZM571.137 570.4C571.137 573.496 569.073 575.296 566.673 575.296C564.273 575.296 562.233 573.472 562.233 570.376C562.233 567.28 564.273 565.528 566.673 565.528C569.073 565.528 571.137 567.352 571.137 570.4ZM586.492 573.424C586.396 568.72 578.764 570.424 578.764 567.304C578.764 566.248 579.724 565.48 581.332 565.48C583.084 565.48 584.092 566.44 584.188 567.76H586.372C586.228 565.192 584.308 563.632 581.404 563.632C578.476 563.632 576.58 565.288 576.58 567.304C576.58 572.2 584.356 570.496 584.356 573.424C584.356 574.504 583.396 575.368 581.668 575.368C579.82 575.368 578.692 574.408 578.572 573.136H576.316C576.46 575.536 578.62 577.216 581.692 577.216C584.596 577.216 586.492 575.584 586.492 573.424ZM589.575 577H591.759V569.728C591.759 566.896 593.295 565.504 595.527 565.504C597.735 565.504 599.199 566.872 599.199 569.56V577H601.359V569.248C601.359 565.48 599.031 563.608 596.103 563.608C594.255 563.608 592.623 564.352 591.759 565.744V559.24H589.575V577ZM607.11 566.296V559.24H604.926V577H607.11V574.576C607.926 576.016 609.63 577.216 612.03 577.216C615.558 577.216 618.27 574.456 618.27 570.376C618.27 566.272 615.582 563.632 612.03 563.632C609.702 563.632 607.95 564.832 607.11 566.296ZM616.038 570.376C616.038 573.472 613.998 575.296 611.574 575.296C609.198 575.296 607.11 573.496 607.11 570.4C607.11 567.352 609.198 565.528 611.574 565.528C613.998 565.528 616.038 567.28 616.038 570.376ZM633.625 570.4C633.625 566.248 630.721 563.632 626.977 563.632C623.257 563.632 620.329 566.248 620.329 570.4C620.329 574.576 623.161 577.216 626.881 577.216C630.625 577.216 633.625 574.576 633.625 570.4ZM622.561 570.4C622.561 567.088 624.649 565.528 626.953 565.528C629.209 565.528 631.393 567.088 631.393 570.4C631.393 573.736 629.161 575.296 626.881 575.296C624.601 575.296 622.561 573.736 622.561 570.4ZM635.68 570.376C635.68 574.456 638.392 577.216 641.896 577.216C644.32 577.216 646.024 575.968 646.816 574.552V577H649.024V563.848H646.816V566.248C646.048 564.88 644.368 563.632 641.92 563.632C638.392 563.632 635.68 566.272 635.68 570.376ZM646.816 570.4C646.816 573.496 644.752 575.296 642.352 575.296C639.952 575.296 637.912 573.472 637.912 570.376C637.912 567.28 639.952 565.528 642.352 565.528C644.752 565.528 646.816 567.352 646.816 570.4ZM654.899 569.848C654.899 566.8 656.483 565.864 658.571 565.864H659.147V563.608C657.059 563.608 655.643 564.52 654.899 565.984V563.848H652.715V577H654.899V569.848ZM660.852 570.376C660.852 574.456 663.564 577.216 667.092 577.216C669.492 577.216 671.196 575.992 671.988 574.528V577H674.196V559.24H671.988V566.2C671.076 564.688 669.18 563.632 667.116 563.632C663.564 563.632 660.852 566.272 660.852 570.376ZM671.988 570.4C671.988 573.496 669.924 575.296 667.524 575.296C665.124 575.296 663.084 573.472 663.084 570.376C663.084 567.28 665.124 565.528 667.524 565.528C669.924 565.528 671.988 567.352 671.988 570.4ZM686.854 577H689.11L692.278 566.56L695.446 577H697.702L701.806 563.848H699.646L696.67 574.912L693.478 563.848H691.246L687.982 574.888L684.958 563.848H682.726L686.854 577ZM703.973 577H706.157V563.848H703.973V577ZM705.101 561.712C705.893 561.712 706.541 561.064 706.541 560.224C706.541 559.384 705.893 558.736 705.101 558.736C704.261 558.736 703.613 559.384 703.613 560.224C703.613 561.064 704.261 561.712 705.101 561.712ZM710.359 573.4C710.359 576.04 711.679 577 714.007 577H715.975V575.152H714.367C713.023 575.152 712.543 574.696 712.543 573.4V565.648H715.975V563.848H712.543V560.536H710.359V563.848H708.655V565.648H710.359V573.4ZM718.621 577H720.805V569.728C720.805 566.896 722.341 565.504 724.573 565.504C726.781 565.504 728.245 566.872 728.245 569.56V577H730.405V569.248C730.405 565.48 728.077 563.608 725.149 563.608C723.301 563.608 721.669 564.352 720.805 565.744V559.24H718.621V577ZM740.851 573.4C740.851 576.04 742.171 577 744.499 577H746.467V575.152H744.859C743.515 575.152 743.035 574.696 743.035 573.4V565.648H746.467V563.848H743.035V560.536H740.851V563.848H739.147V565.648H740.851V573.4ZM749.114 577H751.298V569.728C751.298 566.896 752.834 565.504 755.066 565.504C757.274 565.504 758.738 566.872 758.738 569.56V577H760.898V569.248C760.898 565.48 758.57 563.608 755.642 563.608C753.794 563.608 752.162 564.352 751.298 565.744V559.24H749.114V577ZM770.057 565.48C772.313 565.48 774.233 566.896 774.209 569.464H765.905C766.145 566.896 767.921 565.48 770.057 565.48ZM776.201 572.944H773.849C773.369 574.36 772.121 575.368 770.153 575.368C767.921 575.368 766.049 573.904 765.881 571.24H776.393C776.441 570.784 776.465 570.4 776.465 569.92C776.465 566.32 773.969 563.632 770.153 563.632C766.313 563.632 763.649 566.248 763.649 570.4C763.649 574.576 766.409 577.216 770.153 577.216C773.417 577.216 775.529 575.344 776.201 572.944ZM546.032 602.272V599.848H543.848V619.24H546.032V610.576C546.848 611.92 548.552 613.216 550.952 613.216C554.48 613.216 557.192 610.456 557.192 606.376C557.192 602.272 554.48 599.632 550.952 599.632C548.552 599.632 546.824 600.88 546.032 602.272ZM554.96 606.376C554.96 609.472 552.92 611.296 550.496 611.296C548.12 611.296 546.032 609.496 546.032 606.4C546.032 603.352 548.12 601.528 550.496 601.528C552.92 601.528 554.96 603.28 554.96 606.376ZM562.251 605.848C562.251 602.8 563.835 601.864 565.923 601.864H566.499V599.608C564.411 599.608 562.995 600.52 562.251 601.984V599.848H560.067V613H562.251V605.848ZM581.5 606.4C581.5 602.248 578.596 599.632 574.852 599.632C571.132 599.632 568.204 602.248 568.204 606.4C568.204 610.576 571.036 613.216 574.756 613.216C578.5 613.216 581.5 610.576 581.5 606.4ZM570.436 606.4C570.436 603.088 572.524 601.528 574.828 601.528C577.084 601.528 579.268 603.088 579.268 606.4C579.268 609.736 577.036 611.296 574.756 611.296C572.476 611.296 570.436 609.736 570.436 606.4ZM582.811 599.848L587.971 613H590.515L595.675 599.848H593.347L589.267 610.984L585.163 599.848H582.811ZM597.825 613H600.009V599.848H597.825V613ZM598.953 597.712C599.745 597.712 600.393 597.064 600.393 596.224C600.393 595.384 599.745 594.736 598.953 594.736C598.113 594.736 597.465 595.384 597.465 596.224C597.465 597.064 598.113 597.712 598.953 597.712ZM602.915 606.376C602.915 610.456 605.627 613.216 609.155 613.216C611.555 613.216 613.259 611.992 614.051 610.528V613H616.259V595.24H614.051V602.2C613.139 600.688 611.243 599.632 609.179 599.632C605.627 599.632 602.915 602.272 602.915 606.376ZM614.051 606.4C614.051 609.496 611.987 611.296 609.587 611.296C607.187 611.296 605.147 609.472 605.147 606.376C605.147 603.28 607.187 601.528 609.587 601.528C611.987 601.528 614.051 603.352 614.051 606.4ZM625.542 601.48C627.798 601.48 629.718 602.896 629.694 605.464H621.39C621.63 602.896 623.406 601.48 625.542 601.48ZM631.686 608.944H629.334C628.854 610.36 627.606 611.368 625.638 611.368C623.406 611.368 621.534 609.904 621.366 607.24H631.878C631.926 606.784 631.95 606.4 631.95 605.92C631.95 602.32 629.454 599.632 625.638 599.632C621.798 599.632 619.134 602.248 619.134 606.4C619.134 610.576 621.894 613.216 625.638 613.216C628.902 613.216 631.014 611.344 631.686 608.944ZM634.016 606.376C634.016 610.456 636.728 613.216 640.256 613.216C642.656 613.216 644.36 611.992 645.152 610.528V613H647.36V595.24H645.152V602.2C644.24 600.688 642.344 599.632 640.28 599.632C636.728 599.632 634.016 602.272 634.016 606.376ZM645.152 606.4C645.152 609.496 643.088 611.296 640.688 611.296C638.288 611.296 636.248 609.472 636.248 606.376C636.248 603.28 638.288 601.528 640.688 601.528C643.088 601.528 645.152 603.352 645.152 606.4ZM656.634 606.4C656.634 610.576 659.298 613.216 663.042 613.216C666.306 613.216 668.442 611.392 669.114 608.776H666.762C666.282 610.432 664.986 611.368 663.042 611.368C660.642 611.368 658.866 609.664 658.866 606.4C658.866 603.184 660.642 601.48 663.042 601.48C664.986 601.48 666.306 602.488 666.762 604.072H669.114C668.442 601.312 666.306 599.632 663.042 599.632C659.298 599.632 656.634 602.272 656.634 606.4ZM674.212 605.848C674.212 602.8 675.796 601.864 677.884 601.864H678.46V599.608C676.372 599.608 674.956 600.52 674.212 601.984V599.848H672.028V613H674.212V605.848ZM686.573 601.48C688.829 601.48 690.749 602.896 690.725 605.464H682.421C682.661 602.896 684.437 601.48 686.573 601.48ZM692.717 608.944H690.365C689.885 610.36 688.637 611.368 686.669 611.368C684.437 611.368 682.565 609.904 682.397 607.24H692.909C692.957 606.784 692.981 606.4 692.981 605.92C692.981 602.32 690.485 599.632 686.669 599.632C682.829 599.632 680.165 602.248 680.165 606.4C680.165 610.576 682.925 613.216 686.669 613.216C689.933 613.216 692.045 611.344 692.717 608.944ZM695.048 606.376C695.048 610.456 697.76 613.216 701.288 613.216C703.688 613.216 705.392 611.992 706.184 610.528V613H708.392V595.24H706.184V602.2C705.272 600.688 703.376 599.632 701.312 599.632C697.76 599.632 695.048 602.272 695.048 606.376ZM706.184 606.4C706.184 609.496 704.12 611.296 701.72 611.296C699.32 611.296 697.28 609.472 697.28 606.376C697.28 603.28 699.32 601.528 701.72 601.528C704.12 601.528 706.184 603.352 706.184 606.4ZM717.674 601.48C719.93 601.48 721.85 602.896 721.826 605.464H713.522C713.762 602.896 715.538 601.48 717.674 601.48ZM723.818 608.944H721.466C720.986 610.36 719.738 611.368 717.77 611.368C715.538 611.368 713.666 609.904 713.498 607.24H724.01C724.058 606.784 724.082 606.4 724.082 605.92C724.082 602.32 721.586 599.632 717.77 599.632C713.93 599.632 711.266 602.248 711.266 606.4C711.266 610.576 714.026 613.216 717.77 613.216C721.034 613.216 723.146 611.344 723.818 608.944ZM736.589 613H738.749V605.248C738.749 601.48 736.421 599.608 733.373 599.608C731.597 599.608 730.013 600.352 729.149 601.72V599.848H726.965V613H729.149V605.728C729.149 602.896 730.685 601.504 732.917 601.504C735.125 601.504 736.589 602.872 736.589 605.56V613ZM742.797 609.4C742.797 612.04 744.117 613 746.445 613H748.413V611.152H746.805C745.461 611.152 744.981 610.696 744.981 609.4V601.648H748.413V599.848H744.981V596.536H742.797V599.848H741.093V601.648H742.797V609.4ZM751.059 613H753.243V599.848H751.059V613ZM752.187 597.712C752.979 597.712 753.627 597.064 753.627 596.224C753.627 595.384 752.979 594.736 752.187 594.736C751.347 594.736 750.699 595.384 750.699 596.224C750.699 597.064 751.347 597.712 752.187 597.712ZM756.149 606.376C756.149 610.456 758.861 613.216 762.365 613.216C764.789 613.216 766.493 611.968 767.285 610.552V613H769.493V599.848H767.285V602.248C766.517 600.88 764.837 599.632 762.389 599.632C758.861 599.632 756.149 602.272 756.149 606.376ZM767.285 606.4C767.285 609.496 765.221 611.296 762.821 611.296C760.421 611.296 758.381 609.472 758.381 606.376C758.381 603.28 760.421 601.528 762.821 601.528C765.221 601.528 767.285 603.352 767.285 606.4ZM773.184 613H775.368V595.24H773.184V613ZM788.546 609.424C788.45 604.72 780.818 606.424 780.818 603.304C780.818 602.248 781.778 601.48 783.386 601.48C785.138 601.48 786.146 602.44 786.242 603.76H788.426C788.282 601.192 786.362 599.632 783.458 599.632C780.53 599.632 778.634 601.288 778.634 603.304C778.634 608.2 786.41 606.496 786.41 609.424C786.41 610.504 785.45 611.368 783.722 611.368C781.874 611.368 780.746 610.408 780.626 609.136H778.37C778.514 611.536 780.674 613.216 783.746 613.216C786.65 613.216 788.546 611.584 788.546 609.424ZM798.508 609.4C798.508 612.04 799.828 613 802.156 613H804.124V611.152H802.516C801.172 611.152 800.692 610.696 800.692 609.4V601.648H804.124V599.848H800.692V596.536H798.508V599.848H796.804V601.648H798.508V609.4ZM819.25 606.4C819.25 602.248 816.346 599.632 812.602 599.632C808.882 599.632 805.954 602.248 805.954 606.4C805.954 610.576 808.786 613.216 812.506 613.216C816.25 613.216 819.25 610.576 819.25 606.4ZM808.186 606.4C808.186 603.088 810.274 601.528 812.578 601.528C814.834 601.528 817.018 603.088 817.018 606.4C817.018 609.736 814.786 611.296 812.506 611.296C810.226 611.296 808.186 609.736 808.186 606.4ZM553.304 645.424C553.208 640.72 545.576 642.424 545.576 639.304C545.576 638.248 546.536 637.48 548.144 637.48C549.896 637.48 550.904 638.44 551 639.76H553.184C553.04 637.192 551.12 635.632 548.216 635.632C545.288 635.632 543.392 637.288 543.392 639.304C543.392 644.2 551.168 642.496 551.168 645.424C551.168 646.504 550.208 647.368 548.48 647.368C546.632 647.368 545.504 646.408 545.384 645.136H543.128C543.272 647.536 545.432 649.216 548.504 649.216C551.408 649.216 553.304 647.584 553.304 645.424ZM561.979 637.48C564.235 637.48 566.155 638.896 566.131 641.464H557.827C558.067 638.896 559.843 637.48 561.979 637.48ZM568.123 644.944H565.771C565.291 646.36 564.043 647.368 562.075 647.368C559.843 647.368 557.971 645.904 557.803 643.24H568.315C568.363 642.784 568.387 642.4 568.387 641.92C568.387 638.32 565.891 635.632 562.075 635.632C558.235 635.632 555.571 638.248 555.571 642.4C555.571 646.576 558.331 649.216 562.075 649.216C565.339 649.216 567.451 647.344 568.123 644.944ZM576.862 637.48C579.118 637.48 581.038 638.896 581.014 641.464H572.71C572.95 638.896 574.726 637.48 576.862 637.48ZM583.006 644.944H580.654C580.174 646.36 578.926 647.368 576.958 647.368C574.726 647.368 572.854 645.904 572.686 643.24H583.198C583.246 642.784 583.27 642.4 583.27 641.92C583.27 638.32 580.774 635.632 576.958 635.632C573.118 635.632 570.454 638.248 570.454 642.4C570.454 646.576 573.214 649.216 576.958 649.216C580.222 649.216 582.334 647.344 583.006 644.944ZM591.735 642.376C591.735 646.456 594.447 649.216 597.951 649.216C600.375 649.216 602.079 647.968 602.871 646.552V649H605.079V635.848H602.871V638.248C602.103 636.88 600.423 635.632 597.975 635.632C594.447 635.632 591.735 638.272 591.735 642.376ZM602.871 642.4C602.871 645.496 600.807 647.296 598.407 647.296C596.007 647.296 593.967 645.472 593.967 642.376C593.967 639.28 596.007 637.528 598.407 637.528C600.807 637.528 602.871 639.352 602.871 642.4ZM618.394 649H620.554V641.248C620.554 637.48 618.226 635.608 615.178 635.608C613.402 635.608 611.818 636.352 610.954 637.72V635.848H608.77V649H610.954V641.728C610.954 638.896 612.49 637.504 614.722 637.504C616.93 637.504 618.394 638.872 618.394 641.56V649ZM623.305 642.376C623.305 646.456 626.017 649.216 629.545 649.216C631.945 649.216 633.649 647.992 634.441 646.528V649H636.649V631.24H634.441V638.2C633.529 636.688 631.633 635.632 629.569 635.632C626.017 635.632 623.305 638.272 623.305 642.376ZM634.441 642.4C634.441 645.496 632.377 647.296 629.977 647.296C627.577 647.296 625.537 645.472 625.537 642.376C625.537 639.28 627.577 637.528 629.977 637.528C632.377 637.528 634.441 639.352 634.441 642.4ZM645.923 642.376C645.923 646.456 648.635 649.216 652.139 649.216C654.563 649.216 656.267 647.968 657.059 646.552V649H659.267V635.848H657.059V638.248C656.291 636.88 654.611 635.632 652.163 635.632C648.635 635.632 645.923 638.272 645.923 642.376ZM657.059 642.4C657.059 645.496 654.995 647.296 652.595 647.296C650.195 647.296 648.155 645.472 648.155 642.376C648.155 639.28 650.195 637.528 652.595 637.528C654.995 637.528 657.059 639.352 657.059 642.4ZM662.141 642.4C662.141 646.576 664.805 649.216 668.549 649.216C671.813 649.216 673.949 647.392 674.621 644.776H672.269C671.789 646.432 670.493 647.368 668.549 647.368C666.149 647.368 664.373 645.664 664.373 642.4C664.373 639.184 666.149 637.48 668.549 637.48C670.493 637.48 671.813 638.488 672.269 640.072H674.621C673.949 637.312 671.813 635.632 668.549 635.632C664.805 635.632 662.141 638.272 662.141 642.4ZM676.72 642.4C676.72 646.576 679.384 649.216 683.128 649.216C686.392 649.216 688.528 647.392 689.2 644.776H686.848C686.368 646.432 685.072 647.368 683.128 647.368C680.728 647.368 678.952 645.664 678.952 642.4C678.952 639.184 680.728 637.48 683.128 637.48C685.072 637.48 686.392 638.488 686.848 640.072H689.2C688.528 637.312 686.392 635.632 683.128 635.632C679.384 635.632 676.72 638.272 676.72 642.4ZM697.706 637.48C699.962 637.48 701.882 638.896 701.858 641.464H693.554C693.794 638.896 695.57 637.48 697.706 637.48ZM703.85 644.944H701.498C701.018 646.36 699.77 647.368 697.802 647.368C695.57 647.368 693.698 645.904 693.53 643.24H704.042C704.09 642.784 704.114 642.4 704.114 641.92C704.114 638.32 701.618 635.632 697.802 635.632C693.962 635.632 691.298 638.248 691.298 642.4C691.298 646.576 694.058 649.216 697.802 649.216C701.066 649.216 703.178 647.344 703.85 644.944ZM716.452 645.424C716.356 640.72 708.724 642.424 708.724 639.304C708.724 638.248 709.684 637.48 711.292 637.48C713.044 637.48 714.052 638.44 714.148 639.76H716.332C716.188 637.192 714.268 635.632 711.364 635.632C708.436 635.632 706.54 637.288 706.54 639.304C706.54 644.2 714.316 642.496 714.316 645.424C714.316 646.504 713.356 647.368 711.628 647.368C709.78 647.368 708.652 646.408 708.532 645.136H706.276C706.42 647.536 708.58 649.216 711.652 649.216C714.556 649.216 716.452 647.584 716.452 645.424ZM728.992 645.424C728.896 640.72 721.264 642.424 721.264 639.304C721.264 638.248 722.224 637.48 723.832 637.48C725.584 637.48 726.592 638.44 726.688 639.76H728.872C728.728 637.192 726.808 635.632 723.904 635.632C720.976 635.632 719.08 637.288 719.08 639.304C719.08 644.2 726.856 642.496 726.856 645.424C726.856 646.504 725.896 647.368 724.168 647.368C722.32 647.368 721.192 646.408 721.072 645.136H718.816C718.96 647.536 721.12 649.216 724.192 649.216C727.096 649.216 728.992 647.584 728.992 645.424ZM743.465 646.504L739.337 635.848H736.913L742.217 648.856L739.625 655.192H741.881L749.801 635.848H747.545L743.465 646.504ZM764.476 642.4C764.476 638.248 761.572 635.632 757.828 635.632C754.108 635.632 751.18 638.248 751.18 642.4C751.18 646.576 754.012 649.216 757.732 649.216C761.476 649.216 764.476 646.576 764.476 642.4ZM753.412 642.4C753.412 639.088 755.5 637.528 757.804 637.528C760.06 637.528 762.244 639.088 762.244 642.4C762.244 645.736 760.012 647.296 757.732 647.296C755.452 647.296 753.412 645.736 753.412 642.4ZM779.012 635.848H776.828V643.072C776.828 645.904 775.316 647.296 773.06 647.296C770.852 647.296 769.388 645.928 769.388 643.264V635.848H767.228V643.552C767.228 647.32 769.604 649.192 772.628 649.192C774.38 649.192 775.988 648.424 776.828 647.056V649H779.012V635.848ZM784.884 641.848C784.884 638.8 786.468 637.864 788.556 637.864H789.132V635.608C787.044 635.608 785.628 636.52 784.884 637.984V635.848H782.7V649H784.884V641.848ZM549.44 673.48C551.696 673.48 553.616 674.896 553.592 677.464H545.288C545.528 674.896 547.304 673.48 549.44 673.48ZM555.584 680.944H553.232C552.752 682.36 551.504 683.368 549.536 683.368C547.304 683.368 545.432 681.904 545.264 679.24H555.776C555.824 678.784 555.848 678.4 555.848 677.92C555.848 674.32 553.352 671.632 549.536 671.632C545.696 671.632 543.032 674.248 543.032 678.4C543.032 682.576 545.792 685.216 549.536 685.216C552.8 685.216 554.912 683.344 555.584 680.944ZM557.915 678.376C557.915 682.456 560.627 685.216 564.131 685.216C566.555 685.216 568.259 683.968 569.051 682.552V685H571.259V671.848H569.051V674.248C568.283 672.88 566.603 671.632 564.155 671.632C560.627 671.632 557.915 674.272 557.915 678.376ZM569.051 678.4C569.051 681.496 566.987 683.296 564.587 683.296C562.187 683.296 560.147 681.472 560.147 678.376C560.147 675.28 562.187 673.528 564.587 673.528C566.987 673.528 569.051 675.352 569.051 678.4ZM577.134 677.848C577.134 674.8 578.718 673.864 580.806 673.864H581.382V671.608C579.294 671.608 577.878 672.52 577.134 673.984V671.848H574.95V685H577.134V677.848ZM593.527 685H595.687V677.248C595.687 673.48 593.359 671.608 590.311 671.608C588.535 671.608 586.951 672.352 586.087 673.72V671.848H583.903V685H586.087V677.728C586.087 674.896 587.623 673.504 589.855 673.504C592.063 673.504 593.527 674.872 593.527 677.56V685ZM599.254 685H601.438V671.848H599.254V685ZM600.382 669.712C601.174 669.712 601.822 669.064 601.822 668.224C601.822 667.384 601.174 666.736 600.382 666.736C599.542 666.736 598.894 667.384 598.894 668.224C598.894 669.064 599.542 669.712 600.382 669.712ZM614.785 685H616.945V677.248C616.945 673.48 614.617 671.608 611.569 671.608C609.793 671.608 608.209 672.352 607.345 673.72V671.848H605.161V685H607.345V677.728C607.345 674.896 608.881 673.504 611.113 673.504C613.321 673.504 614.785 674.872 614.785 677.56V685ZM619.696 678.376C619.696 682.456 622.408 685.216 625.936 685.216C628.336 685.216 630.04 683.944 630.832 682.528V685.288C630.832 688.096 629.08 689.584 626.752 689.584C624.592 689.584 623.032 688.504 622.552 686.92H620.392C620.824 689.728 623.296 691.48 626.752 691.48C630.616 691.48 633.04 688.912 633.04 685.288V671.848H630.832V674.248C630.064 672.832 628.336 671.632 625.936 671.632C622.408 671.632 619.696 674.272 619.696 678.376ZM630.832 678.4C630.832 681.496 628.768 683.296 626.368 683.296C623.968 683.296 621.928 681.472 621.928 678.376C621.928 675.28 623.968 673.528 626.368 673.528C628.768 673.528 630.832 675.352 630.832 678.4ZM646.187 681.424C646.091 676.72 638.459 678.424 638.459 675.304C638.459 674.248 639.419 673.48 641.027 673.48C642.779 673.48 643.787 674.44 643.883 675.76H646.067C645.923 673.192 644.003 671.632 641.099 671.632C638.171 671.632 636.275 673.288 636.275 675.304C636.275 680.2 644.051 678.496 644.051 681.424C644.051 682.504 643.091 683.368 641.363 683.368C639.515 683.368 638.387 682.408 638.267 681.136H636.011C636.155 683.536 638.315 685.216 641.387 685.216C644.291 685.216 646.187 683.584 646.187 681.424Z" fill="#47648F"/>
</svg>
