<svg width="57" height="35" viewBox="0 0 57 35" fill="none" xmlns="http://www.w3.org/2000/svg">
<path d="M0.9375 0.78125V34.25H56.0625V0.78125H0.9375ZM8.8125 4.71875H48.1875C48.1875 5.76304 48.6023 6.76456 49.3408 7.50298C50.0792 8.24141 51.0807 8.65625 52.125 8.65625V26.375C51.0807 26.375 50.0792 26.7898 49.3408 27.5283C48.6023 28.2667 48.1875 29.2682 48.1875 30.3125H8.8125C8.8125 29.2682 8.39766 28.2667 7.65923 27.5283C6.92081 26.7898 5.91929 26.375 4.875 26.375V8.65625C5.91929 8.65625 6.92081 8.24141 7.65923 7.50298C8.39766 6.76456 8.8125 5.76304 8.8125 4.71875ZM28.5 8.65625C24.1471 8.65625 20.625 12.6252 20.625 17.5156C20.625 22.406 24.1471 26.375 28.5 26.375C32.8529 26.375 36.375 22.406 36.375 17.5156C36.375 12.6252 32.8529 8.65625 28.5 8.65625ZM28.5 12.5938C30.6696 12.5938 32.4375 14.8007 32.4375 17.5156C32.4375 20.2305 30.6696 22.4375 28.5 22.4375C26.3304 22.4375 24.5625 20.2305 24.5625 17.5156C24.5625 14.8007 26.3304 12.5938 28.5 12.5938ZM13.7344 14.5625C13.3464 14.5626 12.9623 14.6392 12.604 14.7877C12.2456 14.9363 11.92 15.154 11.6458 15.4284C11.3716 15.7028 11.1541 16.0286 11.0057 16.387C10.8574 16.7455 10.7811 17.1297 10.7812 17.5176C10.7814 17.9055 10.8579 18.2896 11.0065 18.648C11.1551 19.0064 11.3728 19.332 11.6472 19.6062C11.9216 19.8804 12.2473 20.0979 12.6058 20.2462C12.9642 20.3946 13.3484 20.4708 13.7363 20.4707C14.5198 20.4705 15.2711 20.159 15.8249 19.6048C16.3787 19.0506 16.6897 18.2991 16.6895 17.5156C16.6892 16.7321 16.3777 15.9809 15.8235 15.427C15.2693 14.8732 14.5179 14.5622 13.7344 14.5625ZM43.2656 14.5625C42.8777 14.5626 42.4936 14.6392 42.1352 14.7877C41.7769 14.9363 41.4513 15.154 41.177 15.4284C40.9028 15.7028 40.6853 16.0286 40.537 16.387C40.3887 16.7455 40.3124 17.1297 40.3125 17.5176C40.3126 17.9055 40.3892 18.2896 40.5377 18.648C40.6863 19.0064 40.904 19.332 41.1784 19.6062C41.4528 19.8804 41.7786 20.0979 42.137 20.2462C42.4955 20.3946 42.8797 20.4708 43.2676 20.4707C44.0511 20.4705 44.8024 20.159 45.3562 19.6048C45.91 19.0506 46.221 18.2991 46.2207 17.5156C46.2205 16.7321 45.909 15.9809 45.3548 15.427C44.8006 14.8732 44.0491 14.5622 43.2656 14.5625Z" fill="#2F4C8E"/>
</svg>
