<svg width="51" height="53" viewBox="0 0 51 53" fill="none" xmlns="http://www.w3.org/2000/svg">
<path d="M44.1875 2.875C42.4474 2.87639 40.7791 3.56825 39.5486 4.79865C38.3182 6.02906 37.6264 7.69745 37.625 9.4375C37.625 10.3746 37.8298 11.2645 38.1868 12.0756L33.0549 17.848C31.3115 16.6446 29.2433 16.0001 27.125 16C25.1825 16 23.387 16.567 21.8251 17.4858L15.8559 11.5191L15.7955 11.5795C16.31 10.5348 16.625 9.37188 16.625 8.125C16.625 6.56748 16.1631 5.04493 15.2978 3.74989C14.4325 2.45485 13.2026 1.44549 11.7636 0.849452C10.3247 0.253412 8.74126 0.0974608 7.21366 0.401319C5.68606 0.705178 4.28287 1.4552 3.18153 2.55654C2.0802 3.65788 1.33017 5.06107 1.02632 6.58867C0.722457 8.11627 0.878408 9.69967 1.47445 11.1386C2.07049 12.5776 3.07985 13.8075 4.37488 14.6728C5.66992 15.5381 7.19247 16 8.75 16C9.99687 16 11.1571 15.685 12.2045 15.1705L12.1441 15.2309L18.1134 21.1975C17.1491 22.7988 16.6348 24.6308 16.625 26.5C16.625 29.1171 17.6225 31.4849 19.2106 33.3276L12.446 40.0896C11.6878 39.7861 10.8792 39.6285 10.0625 39.625C6.44525 39.625 3.5 42.5676 3.5 46.1875C3.5 49.8074 6.44525 52.75 10.0625 52.75C13.6798 52.75 16.625 49.8074 16.625 46.1875C16.625 45.3449 16.4517 44.5443 16.1604 43.8014L23.6101 36.3516C24.7153 36.7454 25.886 37 27.125 37C32.9157 37 37.625 32.2908 37.625 26.5C37.625 24.8305 37.1971 23.2739 36.5015 21.8695L42.0586 15.6141C42.7306 15.8451 43.4394 16 44.1875 16C47.8074 16 50.75 13.0574 50.75 9.4375C50.75 5.81763 47.8074 2.875 44.1875 2.875ZM27.125 31.75C24.2296 31.75 21.875 29.3954 21.875 26.5C21.875 23.6046 24.2296 21.25 27.125 21.25C30.0204 21.25 32.375 23.6046 32.375 26.5C32.375 29.3954 30.0204 31.75 27.125 31.75Z" fill="white"/>
</svg>
