<svg width="86" height="101" viewBox="0 0 86 101" fill="none" xmlns="http://www.w3.org/2000/svg">
<path d="M84.8516 19.3882C84.4684 18.9521 83.999 18.5995 83.4728 18.3525C82.9465 18.1054 82.3748 17.9693 81.7934 17.9526C72.7606 17.7172 61.3309 8.09136 53.7741 4.31399C49.1061 1.98794 46.0243 0.454233 43.7101 0.0502138C43.2401 -0.0180279 42.7627 -0.0167061 42.2932 0.0541363C39.9789 0.458155 36.8971 1.99186 32.2331 4.31791C24.6763 8.09136 13.2465 17.7172 4.21374 17.9526C3.63191 17.9702 3.0599 18.1067 2.53317 18.3536C2.00644 18.6006 1.53622 18.9527 1.15165 19.3882C0.35453 20.287 -0.0567422 21.4617 0.00631294 22.6596C1.94669 61.9749 16.0961 86.3063 40.9235 100.447C41.569 100.812 42.2853 101 42.9977 101C43.7101 101 44.4264 100.812 45.0758 100.447C69.9032 86.3063 84.0487 61.9749 85.993 22.6596C86.0597 21.4619 85.6495 20.2863 84.8516 19.3882ZM65.1093 34.8507L44.1587 65.6621C43.407 66.7682 42.2262 67.5017 41.0573 67.5017C39.8844 67.5017 38.5816 66.8624 37.759 66.0426L22.9917 51.3214C22.5096 50.8391 22.2389 50.186 22.2389 49.5053C22.2389 48.8245 22.5096 48.1714 22.9917 47.6891L26.6403 44.0451C27.1252 43.5665 27.7801 43.298 28.4626 43.298C29.145 43.298 29.7999 43.5665 30.2849 44.0451L39.8883 53.616L56.5724 29.0729C56.9585 28.5113 57.5518 28.1247 58.2228 27.9975C58.8939 27.8704 59.5882 28.013 60.1541 28.3943L64.4245 31.2813C64.9887 31.6654 65.3774 32.2564 65.5057 32.9252C65.634 33.594 65.4915 34.2863 65.1093 34.8507Z" fill="white"/>
</svg>
