<svg width="98" height="98" viewBox="0 0 98 98" fill="none" xmlns="http://www.w3.org/2000/svg">
<path d="M96.7879 41.5523L85.8339 38.2856C85.0765 35.6439 84.035 33.092 82.7275 30.6743L88.0901 20.6457C88.2913 20.2672 88.365 19.8339 88.3002 19.4102C88.2354 18.9865 88.0356 18.595 87.7304 18.2937L79.9154 10.4538C79.6139 10.1489 79.222 9.94928 78.7979 9.88455C78.3737 9.81982 77.94 9.89343 77.5611 10.0944L67.588 15.4191C65.1442 14.0493 62.5562 12.9537 59.8712 12.1524L56.6013 1.33983C56.463 0.941348 56.2017 0.596987 55.855 0.35631C55.5083 0.115632 55.0942 -0.00894815 54.6721 0.000500349H43.62C43.1953 0.00247528 42.7824 0.139772 42.4413 0.392411C42.1002 0.645049 41.8487 0.999844 41.7234 1.40516L38.4536 12.1851C35.7462 12.9821 33.136 14.0777 30.6713 15.4518L20.8617 10.1598C20.4828 9.95876 20.0491 9.88515 19.625 9.94988C19.2009 10.0146 18.809 10.2142 18.5074 10.5191L10.5617 18.2611C10.2565 18.5623 10.0567 18.9539 9.99187 19.3776C9.92707 19.8012 10.0008 20.2345 10.202 20.6131L15.4991 30.413C14.126 32.8649 13.0293 35.4615 12.2293 38.155L1.40604 41.4216C1.00033 41.5468 0.645182 41.798 0.392296 42.1388C0.139409 42.4796 0.00197687 42.8921 0 43.3163V54.3576C0.00197687 54.7817 0.139409 55.1943 0.392296 55.535C0.645182 55.8758 1.00033 56.127 1.40604 56.2522L12.2947 59.5189C13.1035 62.1675 14.1999 64.7198 15.5645 67.1301L10.202 77.3874C10.0008 77.766 9.92707 78.1993 9.99187 78.6229C10.0567 79.0466 10.2565 79.4382 10.5617 79.7394L18.3766 87.5467C18.6782 87.8516 19.0701 88.0512 19.4942 88.1159C19.9183 88.1807 20.352 88.1071 20.7309 87.9061L30.8348 82.5161C33.225 83.8045 35.7462 84.8339 38.3555 85.5867L41.6253 96.5953C41.7506 97.0007 42.0021 97.3555 42.3432 97.6081C42.6843 97.8607 43.0972 97.998 43.5219 98H54.574C54.9986 97.998 55.4115 97.8607 55.7526 97.6081C56.0937 97.3555 56.3452 97.0007 56.4705 96.5953L59.7404 85.5541C62.3274 84.7974 64.8265 83.768 67.1957 82.4834L77.3649 87.9061C77.7439 88.1071 78.1776 88.1807 78.6017 88.1159C79.0258 88.0512 79.4177 87.8516 79.7192 87.5467L87.5342 79.7394C87.8394 79.4382 88.0392 79.0466 88.104 78.6229C88.1688 78.1993 88.0951 77.766 87.8939 77.3874L82.4659 67.2608C83.7652 64.885 84.8066 62.3772 85.5723 59.7802L96.5917 56.5135C96.9974 56.3884 97.3526 56.1371 97.6055 55.7963C97.8584 55.4556 97.9958 55.0431 97.9978 54.6189V43.4796C98.0171 43.0734 97.9115 42.671 97.6952 42.3265C97.479 41.982 97.1623 41.7118 96.7879 41.5523ZM49.146 66.9668C45.5891 66.9668 42.112 65.9131 39.1545 63.9389C36.197 61.9647 33.8919 59.1587 32.5308 55.8758C31.1696 52.5928 30.8134 48.9803 31.5073 45.4951C32.2013 42.01 33.9141 38.8086 36.4292 36.296C38.9444 33.7833 42.1489 32.0721 45.6375 31.3789C49.1261 30.6857 52.7421 31.0415 56.0283 32.4013C59.3145 33.7612 62.1232 36.064 64.0994 39.0186C66.0755 41.9731 67.1303 45.4468 67.1303 49.0003C67.1303 53.7653 65.2355 58.3352 61.8628 61.7045C58.4901 65.0739 53.9157 66.9668 49.146 66.9668Z" fill="white"/>
</svg>
