<svg width="63" height="63" viewBox="0 0 63 63" fill="none" xmlns="http://www.w3.org/2000/svg">
<path d="M53.1562 49.2188H41.3438C39.7773 49.2188 38.275 49.841 37.1674 50.9486C36.0598 52.0563 35.4375 53.5586 35.4375 55.125V59.0625H39.375V55.125C39.375 54.6029 39.5824 54.1021 39.9516 53.7329C40.3208 53.3637 40.8216 53.1562 41.3438 53.1562H53.1562C53.6784 53.1562 54.1792 53.3637 54.5484 53.7329C54.9176 54.1021 55.125 54.6029 55.125 55.125V59.0625H59.0625V55.125C59.0625 53.5586 58.4402 52.0563 57.3326 50.9486C56.225 49.841 54.7227 49.2188 53.1562 49.2188Z" fill="#20478F"/>
<path d="M39.375 39.375C39.375 40.9325 39.8369 42.4551 40.7022 43.7501C41.5675 45.0452 42.7974 46.0545 44.2364 46.6506C45.6753 47.2466 47.2587 47.4025 48.7863 47.0987C50.3139 46.7948 51.7171 46.0448 52.8185 44.9435C53.9198 43.8421 54.6698 42.4389 54.9737 40.9113C55.2775 39.3837 55.1216 37.8003 54.5256 36.3614C53.9295 34.9224 52.9202 33.6925 51.6251 32.8272C50.3301 31.9619 48.8075 31.5 47.25 31.5C45.1614 31.5 43.1584 32.3297 41.6815 33.8065C40.2047 35.2834 39.375 37.2864 39.375 39.375ZM51.1875 39.375C51.1875 40.1538 50.9566 40.915 50.5239 41.5626C50.0913 42.2101 49.4763 42.7148 48.7568 43.0128C48.0373 43.3108 47.2456 43.3888 46.4818 43.2368C45.718 43.0849 45.0164 42.7099 44.4658 42.1592C43.9151 41.6086 43.5401 40.907 43.3882 40.1432C43.2362 39.3794 43.3142 38.5877 43.6122 37.8682C43.9102 37.1487 44.4149 36.5337 45.0624 36.1011C45.71 35.6684 46.4712 35.4375 47.25 35.4375C48.2943 35.4375 49.2958 35.8523 50.0342 36.5908C50.7727 37.3292 51.1875 38.3307 51.1875 39.375Z" fill="#20478F"/>
<path d="M11.8125 41.3438V39.375H7.875V41.3438C7.875 44.9988 9.32695 48.5041 11.9114 51.0886C14.4959 53.673 18.0012 55.125 21.6562 55.125H27.5625V51.1875H21.6562C19.0455 51.1875 16.5417 50.1504 14.6957 48.3043C12.8496 46.4583 11.8125 43.9545 11.8125 41.3438Z" fill="#20478F"/>
<path d="M37.4062 19.6875H51.1875V23.625H37.4062V19.6875Z" fill="#20478F"/>
<path d="M37.4062 11.8125H57.0938V15.75H37.4062V11.8125Z" fill="#20478F"/>
<path d="M37.4062 3.9375H57.0938V7.875H37.4062V3.9375Z" fill="#20478F"/>
<path d="M21.6562 21.6563H9.84375C8.27732 21.6562 6.77504 22.2785 5.6674 23.3861C4.55976 24.4938 3.9375 25.9961 3.9375 27.5625V31.5H7.875V27.5625C7.875 27.0404 8.08242 26.5396 8.45163 26.1704C8.82085 25.8012 9.32161 25.5938 9.84375 25.5938H21.6562C22.1784 25.5938 22.6792 25.8012 23.0484 26.1704C23.4176 26.5396 23.625 27.0404 23.625 27.5625V31.5H27.5625V27.5625C27.5625 25.9961 26.9402 24.4938 25.8326 23.3861C24.725 22.2785 23.2227 21.6563 21.6562 21.6563Z" fill="#20478F"/>
<path d="M15.75 19.6875C17.3075 19.6875 18.8301 19.2256 20.1251 18.3603C21.4202 17.495 22.4295 16.2651 23.0256 14.8261C23.6216 13.3872 23.7775 11.8038 23.4737 10.2762C23.1698 8.74857 22.4198 7.34538 21.3185 6.24404C20.2171 5.1427 18.8139 4.39268 17.2863 4.08882C15.7587 3.78496 14.1753 3.94091 12.7364 4.53695C11.2974 5.13299 10.0675 6.14235 9.20218 7.43739C8.33686 8.73242 7.875 10.255 7.875 11.8125C7.875 13.9011 8.70468 15.9041 10.1815 17.381C11.6584 18.8578 13.6614 19.6875 15.75 19.6875ZM15.75 7.875C16.5288 7.875 17.29 8.10593 17.9376 8.53859C18.5851 8.97125 19.0898 9.5862 19.3878 10.3057C19.6858 11.0252 19.7638 11.8169 19.6118 12.5807C19.4599 13.3445 19.0849 14.0461 18.5342 14.5967C17.9836 15.1474 17.282 15.5224 16.5182 15.6743C15.7544 15.8263 14.9627 15.7483 14.2432 15.4503C13.5237 15.1523 12.9087 14.6476 12.4761 14.0001C12.0434 13.3525 11.8125 12.5913 11.8125 11.8125C11.8125 10.7682 12.2273 9.76669 12.9658 9.02827C13.7042 8.28985 14.7057 7.875 15.75 7.875Z" fill="#20478F"/>
</svg>
