<svg width="19" height="19" viewBox="0 0 19 19" fill="none" xmlns="http://www.w3.org/2000/svg">
<path d="M16.4062 15.0938H12.4688C11.9466 15.0938 11.4458 15.3012 11.0766 15.6704C10.7074 16.0396 10.5 16.5404 10.5 17.0625V18.375H11.8125V17.0625C11.8125 16.8885 11.8816 16.7215 12.0047 16.5985C12.1278 16.4754 12.2947 16.4062 12.4688 16.4062H16.4062C16.5803 16.4062 16.7472 16.4754 16.8703 16.5985C16.9934 16.7215 17.0625 16.8885 17.0625 17.0625V18.375H18.375V17.0625C18.375 16.5404 18.1676 16.0396 17.7984 15.6704C17.4292 15.3012 16.9284 15.0938 16.4062 15.0938Z" fill="white"/>
<path d="M11.8125 11.8125C11.8125 12.3317 11.9665 12.8392 12.2549 13.2709C12.5433 13.7026 12.9533 14.039 13.433 14.2377C13.9126 14.4364 14.4404 14.4883 14.9496 14.3871C15.4588 14.2858 15.9265 14.0358 16.2937 13.6687C16.6608 13.3015 16.9108 12.8338 17.0121 12.3246C17.1133 11.8154 17.0614 11.2876 16.8627 10.808C16.664 10.3283 16.3276 9.91833 15.8959 9.62989C15.4642 9.34145 14.9567 9.1875 14.4375 9.1875C13.7413 9.1875 13.0736 9.46406 12.5813 9.95635C12.0891 10.4486 11.8125 11.1163 11.8125 11.8125ZM15.75 11.8125C15.75 12.0721 15.673 12.3258 15.5288 12.5417C15.3846 12.7575 15.1796 12.9258 14.9398 13.0251C14.6999 13.1244 14.436 13.1504 14.1814 13.0998C13.9268 13.0491 13.693 12.9241 13.5094 12.7406C13.3259 12.557 13.2009 12.3232 13.1502 12.0686C13.0996 11.814 13.1256 11.5501 13.2249 11.3102C13.3242 11.0704 13.4925 10.8654 13.7083 10.7212C13.9242 10.577 14.1779 10.5 14.4375 10.5C14.7856 10.5 15.1194 10.6383 15.3656 10.8844C15.6117 11.1306 15.75 11.4644 15.75 11.8125Z" fill="white"/>
<path d="M2.625 12.4688V11.8125H1.3125V12.4688C1.3125 13.6871 1.79648 14.8555 2.65798 15.717C3.51947 16.5785 4.68791 17.0625 5.90625 17.0625H7.875V15.75H5.90625C5.03601 15.75 4.20141 15.4043 3.58606 14.7889C2.9707 14.1736 2.625 13.339 2.625 12.4688Z" fill="white"/>
<path d="M11.1562 5.25H15.75V6.5625H11.1562V5.25Z" fill="white"/>
<path d="M11.1562 2.625H17.7188V3.9375H11.1562V2.625Z" fill="white"/>
<path d="M11.1562 0H17.7188V1.3125H11.1562V0Z" fill="white"/>
<path d="M5.90625 5.90625H1.96875C1.44661 5.90625 0.945846 6.11367 0.576634 6.48288C0.207421 6.8521 0 7.35286 0 7.875V9.1875H1.3125V7.875C1.3125 7.70095 1.38164 7.53403 1.50471 7.41096C1.62778 7.28789 1.7947 7.21875 1.96875 7.21875H5.90625C6.0803 7.21875 6.24722 7.28789 6.37029 7.41096C6.49336 7.53403 6.5625 7.70095 6.5625 7.875V9.1875H7.875V7.875C7.875 7.35286 7.66758 6.8521 7.29837 6.48288C6.92915 6.11367 6.42839 5.90625 5.90625 5.90625Z" fill="white"/>
<path d="M3.9375 5.25C4.45668 5.25 4.96419 5.09605 5.39587 4.80761C5.82755 4.51917 6.164 4.1092 6.36268 3.62955C6.56136 3.14989 6.61335 2.62209 6.51206 2.11289C6.41078 1.60369 6.16077 1.13596 5.79366 0.768846C5.42654 0.401733 4.95881 0.151726 4.44961 0.0504398C3.94041 -0.0508464 3.41261 0.00113736 2.93296 0.199817C2.4533 0.398497 2.04333 0.73495 1.75489 1.16663C1.46645 1.59831 1.3125 2.10583 1.3125 2.625C1.3125 3.32119 1.58906 3.98887 2.08134 4.48116C2.57363 4.97344 3.24131 5.25 3.9375 5.25ZM3.9375 1.3125C4.19709 1.3125 4.45085 1.38948 4.66669 1.5337C4.88253 1.67792 5.05075 1.8829 5.15009 2.12273C5.24943 2.36256 5.27542 2.62646 5.22478 2.88106C5.17414 3.13566 5.04913 3.36952 4.86558 3.55308C4.68202 3.73664 4.44816 3.86164 4.19356 3.91228C3.93896 3.96293 3.67506 3.93693 3.43523 3.83759C3.1954 3.73825 2.99042 3.57003 2.8462 3.35419C2.70198 3.13835 2.625 2.88459 2.625 2.625C2.625 2.2769 2.76328 1.94307 3.00942 1.69692C3.25556 1.45078 3.5894 1.3125 3.9375 1.3125Z" fill="white"/>
</svg>
