<svg width="20" height="15" viewBox="0 0 20 15" fill="none" xmlns="http://www.w3.org/2000/svg">
<path d="M19.2857 0H0.714286C0.319196 0 0 0.304688 0 0.681818V14.3182C0 14.6953 0.319196 15 0.714286 15H19.2857C19.6808 15 20 14.6953 20 14.3182V0.681818C20 0.304688 19.6808 0 19.2857 0ZM18.3929 2.3608V13.4659H1.60714V2.3608L0.991071 1.9027L1.8683 0.826705L2.82366 1.53622H17.1786L18.1339 0.826705L19.0112 1.9027L18.3929 2.3608ZM17.1786 1.53409L10 6.8608L2.82143 1.53409L1.86607 0.824574L0.988839 1.90057L1.60491 2.35866L9.22991 8.01776C9.44919 8.18037 9.71897 8.26865 9.99665 8.26865C10.2743 8.26865 10.5441 8.18037 10.7634 8.01776L18.3929 2.3608L19.0089 1.9027L18.1317 0.826705L17.1786 1.53409Z" fill="white"/>
</svg>
