<svg width="19" height="25" viewBox="0 0 19 25" fill="none" xmlns="http://www.w3.org/2000/svg">
<path d="M4.75 17.0787C1.91159 15.4967 0 12.5391 0 9.15179C0 4.09877 4.25473 0 9.5 0C14.7453 0 19 4.09877 19 9.15179C19 12.5391 17.0884 15.4967 14.25 17.0787V20.3125C14.25 20.8064 13.8358 21.2054 13.3232 21.2054H5.67683C5.16418 21.2054 4.75 20.8064 4.75 20.3125V17.0787ZM6.02439 22.9911H12.9756C13.103 22.9911 13.2073 23.0915 13.2073 23.2143V24.1071C13.2073 24.601 12.7931 25 12.2805 25H6.71951C6.20686 25 5.79268 24.601 5.79268 24.1071V23.2143C5.79268 23.0915 5.89695 22.9911 6.02439 22.9911Z" fill="#5B7EB8"/>
</svg>
