<svg width="25" height="25" viewBox="0 0 25 25" fill="none" xmlns="http://www.w3.org/2000/svg">
<path d="M22.6112 13.1805V12.5V11.8105L24.3769 10.3063C24.7024 10.027 24.916 9.64462 24.9799 9.22681C25.0439 8.80899 24.954 8.38262 24.7263 8.02304L22.556 4.44147C22.3947 4.16951 22.1629 3.94362 21.8836 3.78646C21.6044 3.6293 21.2876 3.5464 20.965 3.54608C20.7652 3.54459 20.5664 3.57483 20.3765 3.63562L18.1418 4.36984C17.7559 4.12021 17.3535 3.89587 16.9371 3.6983L16.468 1.44191C16.3839 1.02968 16.1536 0.659374 15.8174 0.395826C15.4811 0.132278 15.0604 -0.00772382 14.6288 0.000328995H10.3249C9.8933 -0.00772382 9.47255 0.132278 9.1363 0.395826C8.80005 0.659374 8.56971 1.02968 8.48562 1.44191L8.0166 3.6983C7.59719 3.89582 7.19166 4.12016 6.80269 4.36984L4.61396 3.5998C4.42203 3.55112 4.22327 3.53297 4.02539 3.54608C3.70285 3.5464 3.38607 3.6293 3.10683 3.78646C2.82758 3.94362 2.59569 4.16951 2.43442 4.44147L0.264088 8.02304C0.0494336 8.38208 -0.0303311 8.80262 0.0384553 9.21263C0.107242 9.62263 0.320299 9.9966 0.641138 10.2705L2.37925 11.8195V13.1895L0.641138 14.6937C0.311237 14.9695 0.0923515 15.3501 0.0233267 15.7681C-0.0456981 16.1861 0.0396017 16.6144 0.264088 16.977L2.43442 20.5585C2.59569 20.8305 2.82758 21.0564 3.10683 21.2135C3.38607 21.3707 3.70285 21.4536 4.02539 21.4539C4.22527 21.4554 4.42407 21.4252 4.61396 21.3644L6.84867 20.6302C7.23449 20.8798 7.63695 21.1041 8.05339 21.3017L8.5224 23.5581C8.6065 23.9703 8.83683 24.3406 9.17308 24.6042C9.50934 24.8677 9.93008 25.0077 10.3617 24.9997H14.7023C15.1339 25.0077 15.5547 24.8677 15.8909 24.6042C16.2272 24.3406 16.4575 23.9703 16.5416 23.5581L17.0106 21.3017C17.43 21.1042 17.8356 20.8798 18.2245 20.6302L20.4501 21.3644C20.6399 21.4252 20.8387 21.4554 21.0386 21.4539C21.3612 21.4536 21.6779 21.3707 21.9572 21.2135C22.2364 21.0564 22.4683 20.8305 22.6296 20.5585L24.7263 16.977C24.941 16.6179 25.0208 16.1974 24.952 15.7874C24.8832 15.3774 24.6701 15.0034 24.3493 14.7295L22.6112 13.1805ZM20.965 19.6631L17.8107 18.6245C17.0723 19.2334 16.2284 19.7095 15.3185 20.0302L14.6656 23.2447H10.3249L9.67194 20.0661C8.76925 19.7362 7.9299 19.261 7.18893 18.6603L4.02539 19.6631L1.85505 16.0816L4.35646 13.9326C4.18642 13.0058 4.18642 12.0569 4.35646 11.1301L1.85505 8.91843L4.02539 5.33687L7.17974 6.37552C7.91814 5.76656 8.76206 5.29053 9.67194 4.96975L10.3249 1.7553H14.6656L15.3185 4.93394C16.2212 5.26382 17.0605 5.73902 17.8015 6.3397L20.965 5.33687L23.1354 8.91843L20.634 11.0674C20.804 11.9942 20.804 12.9431 20.634 13.87L23.1354 16.0816L20.965 19.6631Z" fill="white"/>
<path d="M12.4952 17.8724C11.4039 17.8724 10.3371 17.5573 9.4297 16.967C8.5223 16.3766 7.81507 15.5376 7.39744 14.5559C6.97981 13.5742 6.87054 12.494 7.08344 11.4519C7.29635 10.4098 7.82187 9.45252 8.59355 8.70118C9.36523 7.94985 10.3484 7.43818 11.4188 7.23089C12.4891 7.02359 13.5985 7.12998 14.6068 7.5366C15.615 7.94322 16.4768 8.63181 17.0831 9.51529C17.6894 10.3988 18.013 11.4375 18.013 12.5C18.0204 13.2075 17.8827 13.9093 17.608 14.5644C17.3334 15.2194 16.9272 15.8145 16.4133 16.3148C15.8995 16.8152 15.2883 17.2106 14.6155 17.478C13.9427 17.7455 13.2219 17.8795 12.4952 17.8724V17.8724ZM12.4952 8.91844C12.0091 8.90741 11.5256 8.99252 11.0742 9.1686C10.6228 9.34469 10.2128 9.6081 9.86889 9.94291C9.52502 10.2777 9.25448 10.6769 9.07362 11.1165C8.89277 11.556 8.80536 12.0267 8.81669 12.5C8.80536 12.9734 8.89277 13.444 9.07362 13.8836C9.25448 14.3231 9.52502 14.7223 9.86889 15.0571C10.2128 15.3919 10.6228 15.6553 11.0742 15.8314C11.5256 16.0075 12.0091 16.0926 12.4952 16.0816C12.9814 16.0926 13.4648 16.0075 13.9162 15.8314C14.3676 15.6553 14.7777 15.3919 15.1216 15.0571C15.4654 14.7223 15.736 14.3231 15.9168 13.8836C16.0977 13.444 16.1851 12.9734 16.1738 12.5C16.1851 12.0267 16.0977 11.556 15.9168 11.1165C15.736 10.6769 15.4654 10.2777 15.1216 9.94291C14.7777 9.6081 14.3676 9.34469 13.9162 9.1686C13.4648 8.99252 12.9814 8.90741 12.4952 8.91844Z" fill="white"/>
</svg>
