<svg width="25" height="25" viewBox="0 0 25 25" fill="none" xmlns="http://www.w3.org/2000/svg">
<path d="M22.6112 13.1805V12.5V11.8105L24.3769 10.3063C24.7024 10.027 24.916 9.64462 24.9799 9.22681C25.0439 8.80899 24.954 8.38262 24.7263 8.02304L22.556 4.44147C22.3947 4.16951 22.1629 3.94362 21.8836 3.78646C21.6044 3.6293 21.2876 3.5464 20.965 3.54608C20.7652 3.54459 20.5664 3.57483 20.3765 3.63562L18.1418 4.36984C17.7559 4.12021 17.3535 3.89587 16.9371 3.6983L16.468 1.44191C16.3839 1.02968 16.1536 0.659374 15.8174 0.395826C15.4811 0.132278 15.0604 -0.00772382 14.6288 0.000328995H10.3249C9.8933 -0.00772382 9.47255 0.132278 9.1363 0.395826C8.80005 0.659374 8.56971 1.02968 8.48562 1.44191L8.0166 3.6983C7.59719 3.89582 7.19166 4.12016 6.80269 4.36984L4.61396 3.5998C4.42203 3.55112 4.22327 3.53297 4.02539 3.54608C3.70285 3.5464 3.38607 3.6293 3.10683 3.78646C2.82758 3.94362 2.59569 4.16951 2.43442 4.44147L0.264088 8.02304C0.0494336 8.38208 -0.0303311 8.80262 0.0384553 9.21263C0.107242 9.62263 0.320299 9.9966 0.641138 10.2705L2.37925 11.8195V13.1895L0.641138 14.6937C0.311237 14.9695 0.0923515 15.3501 0.0233267 15.7681C-0.0456981 16.1861 0.0396017 16.6144 0.264088 16.977L2.43442 20.5585C2.59569 20.8305 2.82758 21.0564 3.10683 21.2135C3.38607 21.3707 3.70285 21.4536 4.02539 21.4539C4.22527 21.4554 4.42407 21.4252 4.61396 21.3644L6.84867 20.6302C7.23449 20.8798 7.63695 21.1041 8.05339 21.3017L8.5224 23.5581C8.6065 23.9703 8.83683 24.3406 9.17308 24.6042C9.50934 24.8677 9.93008 25.0077 10.3617 24.9997H14.7023C15.1339 25.0077 15.5547 24.8677 15.8909 24.6042C16.2272 24.3406 16.4575 23.9703 16.5416 23.5581L17.0106 21.3017C17.43 21.1042 17.8356 20.8798 18.2245 20.6302L20.4501 21.3644C20.6399 21.4252 20.8387 21.4554 21.0386 21.4539C21.3612 21.4536 21.6779 21.3707 21.9572 21.2135C22.2364 21.0564 22.4683 20.8305 22.6296 20.5585L24.7263 16.977C24.941 16.6179 25.0208 16.1974 24.952 15.7874C24.8832 15.3774 24.6701 15.0034 24.3493 14.7295L22.6112 13.1805ZM20.965 19.6631L17.8107 18.6245C17.0723 19.2334 16.2284 19.7095 15.3185 20.0302L14.6656 23.2447H10.3249L9.67194 20.0661C8.76925 19.7362 7.9299 19.261 7.18893 18.6603L4.02539 19.6631L1.85505 16.0816L4.35646 13.9326C4.18642 13.0058 4.18642 12.0569 4.35646 11.1301L1.85505 8.91843L4.02539 5.33687L7.17974 6.37552C7.91814 5.76656 8.76206 5.29053 9.67194 4.96975L10.3249 1.7553H14.6656L15.3185 4.93394C16.2212 5.26382 17.0605 5.73902 17.8015 6.3397L20.965 5.33687L23.1354 8.91843L20.634 11.0674C20.804 11.9942 20.804 12.9431 20.634 13.87L23.1354 16.0816L20.965 19.6631Z" fill="#5B7EB8"/>
<path d="M22.6112 13.1805V12.5V11.8105L24.3769 10.3063C24.7024 10.027 24.916 9.64462 24.9799 9.22681C25.0439 8.80899 24.954 8.38262 24.7263 8.02304L22.556 4.44147C22.3947 4.16951 22.1629 3.94362 21.8836 3.78646C21.6044 3.6293 21.2876 3.5464 20.965 3.54608C20.7652 3.54459 20.5664 3.57483 20.3765 3.63562L18.1418 4.36984C17.7559 4.12021 17.3535 3.89587 16.9371 3.6983L16.468 1.44191C16.3839 1.02968 16.1536 0.659374 15.8174 0.395826C15.4811 0.132278 15.0604 -0.00772382 14.6288 0.000328995H10.3249C9.8933 -0.00772382 9.47255 0.132278 9.1363 0.395826C8.80005 0.659374 8.56971 1.02968 8.48562 1.44191L8.0166 3.6983C7.59719 3.89582 7.19166 4.12016 6.80269 4.36984L4.61396 3.5998C4.42203 3.55112 4.22327 3.53297 4.02539 3.54608C3.70285 3.5464 3.38607 3.6293 3.10683 3.78646C2.82758 3.94362 2.59569 4.16951 2.43442 4.44147L0.264088 8.02304C0.0494336 8.38208 -0.0303311 8.80262 0.0384553 9.21263C0.107242 9.62263 0.320299 9.9966 0.641138 10.2705L2.37925 11.8195V13.1895L0.641138 14.6937C0.311237 14.9695 0.0923515 15.3501 0.0233267 15.7681C-0.0456981 16.1861 0.0396017 16.6144 0.264088 16.977L2.43442 20.5585C2.59569 20.8305 2.82758 21.0564 3.10683 21.2135C3.38607 21.3707 3.70285 21.4536 4.02539 21.4539C4.22527 21.4554 4.42407 21.4252 4.61396 21.3644L6.84867 20.6302C7.23449 20.8798 7.63695 21.1041 8.05339 21.3017L8.5224 23.5581C8.6065 23.9703 8.83683 24.3406 9.17308 24.6042C9.50934 24.8677 9.93008 25.0077 10.3617 24.9997H14.7023C15.1339 25.0077 15.5547 24.8677 15.8909 24.6042C16.2272 24.3406 16.4575 23.9703 16.5416 23.5581L17.0106 21.3017C17.43 21.1042 17.8356 20.8798 18.2245 20.6302L20.4501 21.3644C20.6399 21.4252 20.8387 21.4554 21.0386 21.4539C21.3612 21.4536 21.6779 21.3707 21.9572 21.2135C22.2364 21.0564 22.4683 20.8305 22.6296 20.5585L24.7263 16.977C24.941 16.6179 25.0208 16.1974 24.952 15.7874C24.8832 15.3774 24.6701 15.0034 24.3493 14.7295L22.6112 13.1805ZM20.965 19.6631L17.8107 18.6245C17.0723 19.2334 16.2284 19.7095 15.3185 20.0302L14.6656 23.2447H10.3249L9.67194 20.0661C8.76925 19.7362 7.9299 19.261 7.18893 18.6603L4.02539 19.6631L1.85505 16.0816L4.35646 13.9326C4.18642 13.0058 4.18642 12.0569 4.35646 11.1301L1.85505 8.91843L4.02539 5.33687L7.17974 6.37552C7.91814 5.76656 8.76206 5.29053 9.67194 4.96975L10.3249 1.7553H14.6656L15.3185 4.93394C16.2212 5.26382 17.0605 5.73902 17.8015 6.3397L20.965 5.33687L23.1354 8.91843L20.634 11.0674C20.804 11.9942 20.804 12.9431 20.634 13.87L23.1354 16.0816L20.965 19.6631Z" fill="#5B7EB8"/>
<path d="M21.8023 13.1261V12.5V11.8657L23.4267 10.4818C23.7262 10.2248 23.9227 9.87305 23.9815 9.48866C24.0403 9.10427 23.9577 8.71201 23.7482 8.3812L21.7515 5.08616C21.6032 4.83595 21.3898 4.62813 21.1329 4.48354C20.876 4.33896 20.5846 4.26269 20.2878 4.26239C20.104 4.26102 19.9211 4.28885 19.7464 4.34477L17.6904 5.02025C17.3355 4.7906 16.9652 4.5842 16.5821 4.40243L16.1506 2.32656C16.0732 1.9473 15.8613 1.60662 15.552 1.36416C15.2426 1.1217 14.8555 0.992894 14.4585 1.0003H10.4989C10.1018 0.992894 9.71475 1.1217 9.40539 1.36416C9.09604 1.60662 8.88413 1.9473 8.80677 2.32656L8.37527 4.40243C7.98941 4.58416 7.61633 4.79055 7.25847 5.02025L5.24484 4.31182C5.06826 4.26703 4.88541 4.25034 4.70336 4.26239C4.40662 4.26269 4.11519 4.33896 3.85828 4.48354C3.60138 4.62813 3.38804 4.83595 3.23967 5.08616L1.24296 8.3812C1.04548 8.71152 0.972095 9.09841 1.03538 9.47562C1.09866 9.85282 1.29468 10.1969 1.58985 10.4488L3.18891 11.8739V13.1343L1.58985 14.5182C1.28634 14.7719 1.08496 15.1221 1.02146 15.5067C0.957958 15.8912 1.03643 16.2852 1.24296 16.6188L3.23967 19.9138C3.38804 20.1641 3.60138 20.3719 3.85828 20.5165C4.11519 20.661 4.40662 20.7373 4.70336 20.7376C4.88725 20.739 5.07014 20.7112 5.24484 20.6552L7.30077 19.9797C7.65573 20.2094 8.026 20.4158 8.40912 20.5976L8.84061 22.6734C8.91798 23.0527 9.12988 23.3934 9.43924 23.6358C9.74859 23.8783 10.1357 24.0071 10.5327 23.9997H14.5262C14.9232 24.0071 15.3103 23.8783 15.6197 23.6358C15.929 23.3934 16.1409 23.0527 16.2183 22.6734L16.6498 20.5976C17.0356 20.4158 17.4087 20.2095 17.7666 19.9797L19.814 20.6552C19.9887 20.7112 20.1716 20.739 20.3555 20.7376C20.6523 20.7373 20.9437 20.661 21.2006 20.5165C21.4575 20.3719 21.6708 20.1641 21.8192 19.9138L23.7482 16.6188C23.9457 16.2885 24.0191 15.9016 23.9558 15.5244C23.8925 15.1472 23.6965 14.8031 23.4014 14.5512L21.8023 13.1261ZM20.2878 19.0901L17.3858 18.1345C16.7065 18.6948 15.9301 19.1327 15.093 19.4278L14.4923 22.3851H10.4989L9.89819 19.4608C9.06771 19.1573 8.2955 18.7201 7.61382 18.1675L4.70336 19.0901L2.70665 15.795L5.00794 13.818C4.8515 12.9653 4.8515 12.0924 5.00794 11.2396L2.70665 9.20496L4.70336 5.90992L7.60536 6.86548C8.28469 6.30523 9.0611 5.86729 9.89819 5.57217L10.4989 2.61487H14.4923L15.093 5.53922C15.9235 5.84272 16.6957 6.2799 17.3774 6.83253L20.2878 5.90992L22.2846 9.20496L19.9833 11.182C20.1397 12.0347 20.1397 12.9076 19.9833 13.7604L22.2846 15.795L20.2878 19.0901Z" fill="#5B7EB8"/>
<path d="M20.9934 13.0716V12.5V11.9209L22.4766 10.6573C22.75 10.4227 22.9294 10.1015 22.9831 9.75052C23.0368 9.39955 22.9614 9.0414 22.7701 8.73935L20.9471 5.73084C20.8116 5.50239 20.6168 5.31264 20.3822 5.18063C20.1477 5.04861 19.8816 4.97898 19.6106 4.97871C19.4427 4.97746 19.2757 5.00286 19.1162 5.05392L17.2391 5.67067C16.915 5.46098 16.5769 5.27253 16.2271 5.10657L15.8332 3.2112C15.7625 2.86493 15.569 2.55387 15.2866 2.33249C15.0041 2.11111 14.6507 1.99351 14.2882 2.00028H10.6729C10.3104 1.99351 9.95694 2.11111 9.67449 2.33249C9.39204 2.55387 9.19856 2.86493 9.12792 3.2112L8.73395 5.10657C8.38164 5.27249 8.041 5.46093 7.71426 5.67067L5.87572 5.02384C5.7145 4.98294 5.54755 4.9677 5.38133 4.97871C5.1104 4.97898 4.8443 5.04861 4.60973 5.18063C4.37517 5.31264 4.18038 5.50239 4.04492 5.73084L2.22183 8.73935C2.04152 9.04095 1.97452 9.3942 2.0323 9.73861C2.09008 10.083 2.26905 10.3971 2.53856 10.6272L3.99857 11.9284V13.0791L2.53856 14.3427C2.26144 14.5744 2.07758 14.8941 2.01959 15.2452C1.96161 15.5963 2.03327 15.9561 2.22183 16.2606L4.04492 19.2692C4.18038 19.4976 4.37517 19.6874 4.60973 19.8194C4.8443 19.9514 5.1104 20.021 5.38133 20.0213C5.54923 20.0225 5.71622 19.9971 5.87572 19.9461L7.75288 19.3293C8.07697 19.539 8.41504 19.7275 8.76485 19.8934L9.15882 21.7888C9.22946 22.1351 9.42294 22.4461 9.70539 22.6675C9.98784 22.8889 10.3413 23.0065 10.7038 22.9997H14.35C14.7125 23.0065 15.0659 22.8889 15.3484 22.6675C15.6308 22.4461 15.8243 22.1351 15.8949 21.7888L16.2889 19.8934C16.6412 19.7275 16.9819 19.5391 17.3086 19.3293L19.178 19.9461C19.3375 19.9971 19.5045 20.0225 19.6724 20.0213C19.9434 20.021 20.2095 19.9514 20.444 19.8194C20.6786 19.6874 20.8734 19.4976 21.0089 19.2692L22.7701 16.2606C22.9504 15.9591 23.0174 15.6058 22.9597 15.2614C22.9019 14.917 22.7229 14.6029 22.4534 14.3728L20.9934 13.0716ZM19.6106 18.517L16.961 17.6446C16.3407 18.1561 15.6318 18.556 14.8675 18.8254L14.3191 21.5256H10.6729L10.1244 18.8555C9.36617 18.5784 8.66111 18.1792 8.0387 17.6746L5.38133 18.517L3.55825 15.5085L5.65943 13.7034C5.51659 12.9248 5.51659 12.1278 5.65943 11.3492L3.55825 9.49148L5.38133 6.48297L8.03098 7.35544C8.65124 6.84391 9.36013 6.44405 10.1244 6.17459L10.6729 3.47445H14.3191L14.8675 6.14451C15.6258 6.42161 16.3309 6.82078 16.9533 7.32535L19.6106 6.48297L21.4337 9.49148L19.3325 11.2966C19.4754 12.0752 19.4754 12.8722 19.3325 13.6508L21.4337 15.5085L19.6106 18.517Z" fill="#5B7EB8"/>
<path d="M20.1845 13.0172V12.5V11.976L21.5264 10.8328C21.7738 10.6205 21.9361 10.3299 21.9847 10.0124C22.0333 9.69483 21.9651 9.37079 21.792 9.09751L20.1426 6.37552C20.02 6.16883 19.8438 5.99715 19.6315 5.87771C19.4193 5.75827 19.1786 5.69527 18.9334 5.69502C18.7815 5.69389 18.6304 5.71687 18.4861 5.76307L16.7877 6.32108C16.4945 6.13136 16.1886 5.96086 15.8722 5.81071L15.5157 4.09585C15.4518 3.78255 15.2767 3.50112 15.0212 3.30083C14.7656 3.10053 14.4459 2.99413 14.1179 3.00025H10.8469C10.5189 2.99413 10.1991 3.10053 9.94359 3.30083C9.68804 3.50112 9.51298 3.78255 9.44907 4.09585L9.09262 5.81071C8.77386 5.96082 8.46566 6.13132 8.17004 6.32108L6.50661 5.73585C6.36074 5.69885 6.20969 5.68506 6.0593 5.69502C5.81417 5.69527 5.57341 5.75827 5.36119 5.87771C5.14896 5.99715 4.97273 6.16883 4.85016 6.37552L3.20071 9.09751C3.03757 9.37038 2.97695 9.68999 3.02923 10.0016C3.0815 10.3132 3.24343 10.5974 3.48726 10.8056L4.80823 11.9828V13.024L3.48726 14.1672C3.23654 14.3768 3.07019 14.6661 3.01773 14.9838C2.96527 15.3014 3.0301 15.6269 3.20071 15.9025L4.85016 18.6245C4.97273 18.8312 5.14896 19.0029 5.36119 19.1223C5.57341 19.2417 5.81417 19.3047 6.0593 19.305C6.21121 19.3061 6.36229 19.2831 6.50661 19.2369L8.20499 18.6789C8.49821 18.8686 8.80409 19.0391 9.12057 19.1893L9.47703 20.9041C9.54094 21.2174 9.71599 21.4989 9.97154 21.6992C10.2271 21.8995 10.5469 22.0059 10.8749 21.9998H14.1738C14.5018 22.0059 14.8216 21.8995 15.0771 21.6992C15.3327 21.4989 15.5077 21.2174 15.5716 20.9041L15.9281 19.1893C16.2468 19.0392 16.555 18.8687 16.8506 18.6789L18.542 19.2369C18.6864 19.2831 18.8374 19.3061 18.9894 19.305C19.2345 19.3047 19.4752 19.2417 19.6875 19.1223C19.8997 19.0029 20.0759 18.8312 20.1985 18.6245L21.792 15.9025C21.9552 15.6296 22.0158 15.31 21.9635 14.9984C21.9112 14.6868 21.7493 14.4026 21.5055 14.1944L20.1845 13.0172ZM18.9334 17.944L16.5361 17.1546C15.9749 17.6174 15.3336 17.9792 14.6421 18.223L14.1458 20.666H10.8469L10.3507 18.2502C9.66463 17.9995 9.02672 17.6383 8.46359 17.1818L6.0593 17.944L4.40984 15.222L6.31091 13.5888C6.18168 12.8844 6.18168 12.1633 6.31091 11.4588L4.40984 9.77801L6.0593 7.05602L8.4566 7.8454C9.01779 7.38258 9.65917 7.0208 10.3507 6.77701L10.8469 4.33403H14.1458L14.6421 6.74979C15.3281 7.0005 15.966 7.36166 16.5291 7.81818L18.9334 7.05602L20.5829 9.77801L18.6818 11.4112C18.8111 12.1156 18.8111 12.8368 18.6818 13.5412L20.5829 15.222L18.9334 17.944Z" fill="#5B7EB8"/>
<path d="M19.3756 12.9627V12.5V12.0312L20.5763 11.0083C20.7976 10.8183 20.9429 10.5583 20.9863 10.2742C21.0298 9.99011 20.9688 9.70018 20.8139 9.45567L19.3381 7.0202C19.2284 6.83527 19.0707 6.68166 18.8809 6.57479C18.691 6.46793 18.4756 6.41155 18.2562 6.41134C18.1203 6.41032 17.9851 6.43089 17.856 6.47222L16.3364 6.97149C16.074 6.80175 15.8004 6.64919 15.5172 6.51484L15.1983 4.9805C15.1411 4.70018 14.9845 4.44837 14.7558 4.26916C14.5271 4.08995 14.241 3.99475 13.9476 4.00022H11.0209C10.7274 3.99475 10.4413 4.08995 10.2127 4.26916C9.98403 4.44837 9.8274 4.70018 9.77022 4.9805L9.45129 6.51484C9.16609 6.64916 8.89033 6.80171 8.62583 6.97149L7.13749 6.44787C7.00698 6.41476 6.87182 6.40242 6.73727 6.41134C6.51794 6.41155 6.30253 6.46793 6.11264 6.57479C5.92276 6.68166 5.76507 6.83527 5.65541 7.0202L4.17958 9.45567C4.03361 9.69982 3.97937 9.98578 4.02615 10.2646C4.07292 10.5434 4.2178 10.7977 4.43597 10.9839L5.61789 12.0373V12.9688L4.43597 13.9917C4.21164 14.1793 4.0628 14.4381 4.01586 14.7223C3.96893 15.0066 4.02693 15.2978 4.17958 15.5443L5.65541 17.9798C5.76507 18.1647 5.92276 18.3183 6.11264 18.4252C6.30253 18.5321 6.51794 18.5884 6.73727 18.5887C6.87319 18.5897 7.00837 18.5691 7.13749 18.5278L8.65709 18.0285C8.91945 18.1983 9.19313 18.3508 9.4763 18.4852L9.79523 20.0195C9.85242 20.2998 10.009 20.5516 10.2377 20.7308C10.4663 20.9101 10.7525 21.0053 11.0459 20.9998H13.9976C14.2911 21.0053 14.5772 20.9101 14.8058 20.7308C15.0345 20.5516 15.1911 20.2998 15.2483 20.0195L15.5672 18.4852C15.8524 18.3508 16.1282 18.1983 16.3927 18.0285L17.906 18.5278C18.0352 18.5691 18.1703 18.5897 18.3063 18.5887C18.5256 18.5884 18.741 18.5321 18.9309 18.4252C19.1208 18.3183 19.2785 18.1647 19.3881 17.9798L20.8139 15.5443C20.9599 15.3002 21.0141 15.0142 20.9673 14.7354C20.9206 14.4566 20.7757 14.2023 20.5575 14.0161L19.3756 12.9627ZM18.2562 17.3709L16.1113 16.6646C15.6092 17.0787 15.0353 17.4024 14.4166 17.6206L13.9726 19.8064H11.0209L10.5769 17.6449C9.96309 17.4206 9.39233 17.0975 8.88847 16.689L6.73727 17.3709L5.26144 14.9355L6.96239 13.4742C6.84676 12.8439 6.84676 12.1987 6.96239 11.5684L5.26144 10.0645L6.73727 7.62907L8.88222 8.33535C9.38434 7.92126 9.9582 7.59756 10.5769 7.37943L11.0209 5.1936H13.9726L14.4166 7.35508C15.0304 7.5794 15.6012 7.90254 16.105 8.311L18.2562 7.62907L19.7321 10.0645L18.0311 11.5258C18.1467 12.1561 18.1467 12.8013 18.0311 13.4316L19.7321 14.9355L18.2562 17.3709Z" fill="#5B7EB8"/>
<path d="M18.5667 12.9083V12.5V12.0863L19.6261 11.1838C19.8214 11.0162 19.9496 10.7868 19.9879 10.5361C20.0263 10.2854 19.9724 10.0296 19.8358 9.81382L18.5336 7.66488C18.4368 7.50171 18.2977 7.36617 18.1302 7.27188C17.9626 7.17758 17.7726 7.12784 17.579 7.12765C17.4591 7.12675 17.3398 7.1449 17.2259 7.18137L15.8851 7.62191C15.6536 7.47213 15.4121 7.33752 15.1622 7.21898L14.8808 5.86515C14.8304 5.61781 14.6922 5.39562 14.4904 5.2375C14.2887 5.07937 14.0362 4.99537 13.7773 5.0002H11.1949C10.936 4.99537 10.6835 5.07937 10.4818 5.2375C10.28 5.39562 10.1418 5.61781 10.0914 5.86515L9.80996 7.21898C9.55831 7.33749 9.315 7.4721 9.08161 7.62191L7.76837 7.15988C7.65322 7.13067 7.53396 7.11978 7.41523 7.12765C7.22171 7.12784 7.03164 7.17758 6.8641 7.27188C6.69655 7.36617 6.55742 7.50171 6.46065 7.66488L5.15845 9.81382C5.02966 10.0292 4.9818 10.2816 5.02307 10.5276C5.06435 10.7736 5.19218 10.998 5.38468 11.1623L6.42755 12.0917V12.9137L5.38468 13.8162C5.18674 13.9817 5.05541 14.2101 5.014 14.4609C4.97258 14.7117 5.02376 14.9686 5.15845 15.1862L6.46065 17.3351C6.55742 17.4983 6.69655 17.6338 6.8641 17.7281C7.03164 17.8224 7.22171 17.8722 7.41523 17.8724C7.53516 17.8732 7.65444 17.8551 7.76837 17.8186L9.1092 17.3781C9.34069 17.5279 9.58217 17.6625 9.83203 17.781L10.1134 19.1349C10.1639 19.3822 10.3021 19.6044 10.5039 19.7625C10.7056 19.9206 10.958 20.0046 11.217 19.9998H13.8214C14.0804 20.0046 14.3328 19.9206 14.5346 19.7625C14.7363 19.6044 14.8745 19.3822 14.925 19.1349L15.2064 17.781C15.458 17.6625 15.7013 17.5279 15.9347 17.3781L17.27 17.8186C17.384 17.8551 17.5032 17.8732 17.6232 17.8724C17.8167 17.8722 18.0068 17.8224 18.1743 17.7281C18.3419 17.6338 18.481 17.4983 18.5778 17.3351L19.8358 15.1862C19.9646 14.9708 20.0125 14.7184 19.9712 14.4724C19.9299 14.2264 19.8021 14.002 19.6096 13.8377L18.5667 12.9083ZM17.579 16.7979L15.6864 16.1747C15.2434 16.5401 14.737 16.8257 14.1911 17.0181L13.7993 18.9468H11.1949L10.8032 17.0396C10.2616 16.8417 9.75794 16.5566 9.31336 16.1962L7.41523 16.7979L6.11303 14.6489L7.61388 13.3596C7.51185 12.8035 7.51185 12.2341 7.61388 11.678L6.11303 10.3511L7.41523 8.20212L9.30784 8.82531C9.75089 8.45993 10.2572 8.17432 10.8032 7.98185L11.1949 6.05318H13.7993L14.1911 7.96036C14.7327 8.15829 15.2363 8.44341 15.6809 8.80382L17.579 8.20212L18.8812 10.3511L17.3804 11.6404C17.4824 12.1965 17.4824 12.7659 17.3804 13.322L18.8812 14.6489L17.579 16.7979Z" fill="#5B7EB8"/>
<path d="M17.7578 12.8539V12.5V12.1415L18.676 11.3593C18.8452 11.214 18.9563 11.0152 18.9896 10.7979C19.0228 10.5807 18.9761 10.359 18.8577 10.172L17.7291 8.30957C17.6453 8.16814 17.5247 8.05068 17.3795 7.96896C17.2343 7.88724 17.0695 7.84413 16.9018 7.84396C16.7979 7.84319 16.6945 7.85891 16.5958 7.89052L15.4337 8.27232C15.2331 8.14251 15.0238 8.02585 14.8073 7.92311L14.5634 6.74979C14.5196 6.53543 14.3999 6.34287 14.225 6.20583C14.0502 6.06878 13.8314 5.99598 13.607 6.00017H11.3689C11.1445 5.99598 10.9257 6.06878 10.7509 6.20583C10.576 6.34287 10.4563 6.53543 10.4125 6.74979L10.1686 7.92311C9.95054 8.02583 9.73966 8.14248 9.5374 8.27232L8.39926 7.8719C8.29945 7.84658 8.1961 7.83715 8.0932 7.84396C7.92548 7.84413 7.76076 7.88724 7.61555 7.96896C7.47034 8.05068 7.34976 8.16814 7.2659 8.30957L6.13733 10.172C6.02571 10.3587 5.98423 10.5774 6.02 10.7906C6.05577 11.0038 6.16656 11.1982 6.33339 11.3406L7.23721 12.1461V12.8585L6.33339 13.6407C6.16184 13.7841 6.04802 13.9821 6.01213 14.1994C5.97624 14.4168 6.02059 14.6395 6.13733 14.828L7.2659 16.6904C7.34976 16.8319 7.47034 16.9493 7.61555 17.031C7.76076 17.1128 7.92548 17.1559 8.0932 17.156C8.19714 17.1568 8.30052 17.1411 8.39926 17.1095L9.56131 16.7277C9.76193 16.8575 9.97122 16.9741 10.1878 17.0769L10.4316 18.2502C10.4754 18.4646 10.5952 18.6571 10.77 18.7942C10.9449 18.9312 11.1636 19.004 11.3881 18.9998H13.6452C13.8696 19.004 14.0884 18.9312 14.2633 18.7942C14.4381 18.6571 14.5579 18.4646 14.6016 18.2502L14.8455 17.0769C15.0636 16.9742 15.2745 16.8575 15.4768 16.7277L16.634 17.1095C16.7328 17.1411 16.8361 17.1568 16.9401 17.156C17.1078 17.1559 17.2725 17.1128 17.4177 17.031C17.5629 16.9493 17.6835 16.8319 17.7674 16.6904L18.8577 14.828C18.9693 14.6413 19.0108 14.4226 18.975 14.2094C18.9393 13.9962 18.8285 13.8018 18.6616 13.6594L17.7578 12.8539ZM16.9018 16.2248L15.2616 15.6847C14.8776 16.0014 14.4388 16.2489 13.9656 16.4157L13.6261 18.0872H11.3689L11.0294 16.4344C10.56 16.2628 10.1235 16.0157 9.73824 15.7034L8.0932 16.2248L6.96463 14.3624L8.26536 13.245C8.17694 12.763 8.17694 12.2696 8.26536 11.7876L6.96463 10.6376L8.0932 8.77517L9.73346 9.31527C10.1174 8.99861 10.5563 8.75108 11.0294 8.58427L11.3689 6.91275H13.6261L13.9656 8.56565C14.435 8.73719 14.8715 8.98429 15.2568 9.29665L16.9018 8.77517L18.0304 10.6376L16.7297 11.755C16.8181 12.237 16.8181 12.7304 16.7297 13.2124L18.0304 14.3624L16.9018 16.2248Z" fill="#5B7EB8"/>
<path d="M16.9489 12.7994V12.5V12.1966L17.7258 11.5348C17.869 11.4119 17.963 11.2436 17.9912 11.0598C18.0193 10.876 17.9798 10.6884 17.8796 10.5301L16.9246 8.95425C16.8537 8.83458 16.7517 8.73519 16.6288 8.66604C16.5059 8.59689 16.3665 8.56042 16.2246 8.56028C16.1367 8.55962 16.0492 8.57293 15.9657 8.59967L14.9824 8.92273C14.8126 8.81289 14.6355 8.71418 14.4523 8.62725L14.2459 7.63444C14.2089 7.45306 14.1076 7.29012 13.9596 7.17416C13.8117 7.0582 13.6266 6.9966 13.4367 7.00014H11.5429C11.3531 6.9966 11.1679 7.0582 11.02 7.17416C10.872 7.29012 10.7707 7.45306 10.7337 7.63444L10.5273 8.62725C10.3428 8.71416 10.1643 8.81287 9.99318 8.92273L9.03014 8.58391C8.94569 8.56249 8.85824 8.55451 8.77117 8.56028C8.62925 8.56042 8.48987 8.59689 8.367 8.66604C8.24414 8.73519 8.14211 8.83458 8.07115 8.95425L7.1162 10.5301C7.02175 10.6881 6.98665 10.8732 7.01692 11.0536C7.04719 11.234 7.14093 11.3985 7.2821 11.519L8.04687 12.2006V12.8034L7.2821 13.4652C7.13694 13.5866 7.04063 13.7541 7.01026 13.938C6.97989 14.1219 7.01742 14.3103 7.1162 14.4699L8.07115 16.0458C8.14211 16.1654 8.24414 16.2648 8.367 16.334C8.48987 16.4031 8.62925 16.4396 8.77117 16.4397C8.85912 16.4404 8.94659 16.4271 9.03014 16.4003L10.0134 16.0773C10.1832 16.1871 10.3603 16.2858 10.5435 16.3727L10.7499 17.3656C10.7869 17.5469 10.8882 17.7099 11.0362 17.8258C11.1841 17.9418 11.3692 18.0034 11.5591 17.9999H13.469C13.6589 18.0034 13.8441 17.9418 13.992 17.8258C14.14 17.7099 14.2413 17.5469 14.2783 17.3656L14.4847 16.3727C14.6692 16.2858 14.8476 16.1871 15.0188 16.0773L15.998 16.4003C16.0816 16.4271 16.169 16.4404 16.257 16.4397C16.3989 16.4396 16.5383 16.4031 16.6612 16.334C16.784 16.2648 16.8861 16.1654 16.957 16.0458L17.8796 14.4699C17.974 14.3119 18.0091 14.1268 17.9789 13.9464C17.9486 13.766 17.8549 13.6015 17.7137 13.481L16.9489 12.7994ZM16.2246 15.6518L14.8367 15.1948C14.5118 15.4627 14.1405 15.6722 13.7401 15.8133L13.4528 17.2277H11.5429L11.2557 15.8291C10.8585 15.6839 10.4892 15.4748 10.1631 15.2105L8.77117 15.6518L7.81622 14.0759L8.91684 13.1304C8.84202 12.7225 8.84202 12.305 8.91684 11.8972L7.81622 10.9241L8.77117 9.34822L10.1591 9.80523C10.484 9.53728 10.8553 9.32783 11.2557 9.18669L11.5429 7.77233H13.4528L13.7401 9.17093C14.1373 9.31608 14.5066 9.52517 14.8327 9.78947L16.2246 9.34822L17.1796 10.9241L16.079 11.8696C16.1538 12.2775 16.1538 12.695 16.079 13.1028L17.1796 14.0759L16.2246 15.6518Z" fill="#5B7EB8"/>
<path d="M12.4952 17.8724C11.4039 17.8724 10.3371 17.5573 9.4297 16.967C8.5223 16.3766 7.81507 15.5376 7.39744 14.5559C6.97981 13.5742 6.87054 12.494 7.08344 11.4519C7.29635 10.4098 7.82187 9.45252 8.59355 8.70118C9.36523 7.94985 10.3484 7.43818 11.4188 7.23089C12.4891 7.02359 13.5985 7.12998 14.6068 7.5366C15.615 7.94322 16.4768 8.63181 17.0831 9.51529C17.6894 10.3988 18.013 11.4375 18.013 12.5C18.0204 13.2075 17.8827 13.9093 17.608 14.5644C17.3334 15.2194 16.9272 15.8145 16.4133 16.3148C15.8995 16.8152 15.2883 17.2106 14.6155 17.478C13.9427 17.7455 13.2219 17.8795 12.4952 17.8724V17.8724ZM12.4952 8.91844C12.0091 8.90741 11.5256 8.99252 11.0742 9.1686C10.6228 9.34469 10.2128 9.6081 9.86889 9.94291C9.52502 10.2777 9.25448 10.6769 9.07362 11.1165C8.89277 11.556 8.80536 12.0267 8.81669 12.5C8.80536 12.9734 8.89277 13.444 9.07362 13.8836C9.25448 14.3231 9.52502 14.7223 9.86889 15.0571C10.2128 15.3919 10.6228 15.6553 11.0742 15.8314C11.5256 16.0075 12.0091 16.0926 12.4952 16.0816C12.9814 16.0926 13.4648 16.0075 13.9162 15.8314C14.3676 15.6553 14.7777 15.3919 15.1216 15.0571C15.4654 14.7223 15.736 14.3231 15.9168 13.8836C16.0977 13.444 16.1851 12.9734 16.1738 12.5C16.1851 12.0267 16.0977 11.556 15.9168 11.1165C15.736 10.6769 15.4654 10.2777 15.1216 9.94291C14.7777 9.6081 14.3676 9.34469 13.9162 9.1686C13.4648 8.99252 12.9814 8.90741 12.4952 8.91844Z" fill="#5B7EB8"/>
<path d="M12.4998 18.9997C11.2143 18.9997 9.95761 18.6185 8.88872 17.9042C7.81983 17.19 6.98673 16.1749 6.49477 14.9872C6.00282 13.7995 5.8741 12.4926 6.1249 11.2318C6.37569 9.97094 6.99474 8.81278 7.90376 7.90376C8.81278 6.99474 9.97094 6.37569 11.2318 6.1249C12.4926 5.8741 13.7995 6.00282 14.9872 6.49477C16.1749 6.98673 17.19 7.81983 17.9042 8.88872C18.6185 9.95761 18.9997 11.2143 18.9997 12.4998C19.0084 13.3558 18.8462 14.2049 18.5226 14.9975C18.199 15.79 17.7206 16.51 17.1153 17.1153C16.51 17.7206 15.79 18.199 14.9975 18.5226C14.2049 18.8462 13.3558 19.0084 12.4998 18.9997V18.9997ZM12.4998 8.16661C11.9271 8.15327 11.3577 8.25624 10.8259 8.46928C10.2942 8.68232 9.81115 9.00101 9.40608 9.40608C9.00101 9.81115 8.68232 10.2942 8.46928 10.8259C8.25624 11.3577 8.15327 11.9271 8.16661 12.4998C8.15327 13.0725 8.25624 13.642 8.46928 14.1737C8.68232 14.7055 9.00101 15.1885 9.40608 15.5936C9.81115 15.9987 10.2942 16.3173 10.8259 16.5304C11.3577 16.7434 11.9271 16.8464 12.4998 16.8331C13.0725 16.8464 13.642 16.7434 14.1737 16.5304C14.7055 16.3173 15.1885 15.9987 15.5936 15.5936C15.9987 15.1885 16.3173 14.7055 16.5304 14.1737C16.7434 13.642 16.8464 13.0725 16.8331 12.4998C16.8464 11.9271 16.7434 11.3577 16.5304 10.8259C16.3173 10.2942 15.9987 9.81115 15.5936 9.40608C15.1885 9.00101 14.7055 8.68232 14.1737 8.46928C13.642 8.25624 13.0725 8.15327 12.4998 8.16661Z" fill="#5B7EB8"/>
</svg>
