<svg width="21" height="22" viewBox="0 0 21 22" fill="none" xmlns="http://www.w3.org/2000/svg">
<path d="M18.2368 1.1C17.5042 1.10058 16.8017 1.3905 16.2836 1.9061C15.7656 2.4217 15.4743 3.12083 15.4737 3.85C15.4737 4.2427 15.5599 4.6156 15.7102 4.9555L13.5494 7.3744C12.8154 6.87014 11.9446 6.60005 11.0526 6.6C10.2347 6.6 9.47874 6.8376 8.82111 7.2226L6.30774 4.7223L6.28232 4.7476C6.49895 4.3098 6.63158 3.8225 6.63158 3.3C6.63158 2.64732 6.43711 2.0093 6.07277 1.46662C5.70842 0.923938 5.19057 0.500968 4.58469 0.251199C3.97881 0.00142984 3.31211 -0.0639212 2.66891 0.0634101C2.02571 0.190741 1.4349 0.505036 0.971174 0.966549C0.507452 1.42806 0.191654 2.01607 0.0637134 2.6562C-0.064227 3.29634 0.00143669 3.95986 0.252401 4.56286C0.503365 5.16585 0.928358 5.68124 1.47364 6.04385C2.01892 6.40646 2.65999 6.6 3.31579 6.6C3.84079 6.6 4.32932 6.468 4.77032 6.2524L4.7449 6.2777L7.25826 8.778C6.85223 9.44903 6.63572 10.2167 6.63158 11C6.63158 12.0967 7.05158 13.0889 7.72026 13.8611L4.872 16.6947C4.55277 16.5675 4.21228 16.5015 3.86842 16.5C2.34537 16.5 1.10526 17.7331 1.10526 19.25C1.10526 20.7669 2.34537 22 3.86842 22C5.39147 22 6.63158 20.7669 6.63158 19.25C6.63158 18.8969 6.55863 18.5614 6.43595 18.2501L9.57268 15.1283C10.038 15.2933 10.5309 15.4 11.0526 15.4C13.4908 15.4 15.4737 13.4266 15.4737 11C15.4737 10.3004 15.2935 9.6481 15.0006 9.0596L17.3405 6.4383C17.6234 6.5351 17.9218 6.6 18.2368 6.6C19.761 6.6 21 5.3669 21 3.85C21 2.3331 19.761 1.1 18.2368 1.1ZM11.0526 13.2C9.83353 13.2 8.8421 12.2133 8.8421 11C8.8421 9.7867 9.83353 8.8 11.0526 8.8C12.2717 8.8 13.2632 9.7867 13.2632 11C13.2632 12.2133 12.2717 13.2 11.0526 13.2Z" fill="white"/>
</svg>
