<svg width="24" height="15" viewBox="0 0 24 15" fill="none" xmlns="http://www.w3.org/2000/svg">
<path d="M0 0V15H24V0H0ZM3.42857 1.76471H20.5714C20.5714 2.23273 20.752 2.68159 21.0735 3.01254C21.395 3.34349 21.8311 3.52941 22.2857 3.52941V11.4706C21.8311 11.4706 21.395 11.6565 21.0735 11.9875C20.752 12.3184 20.5714 12.7673 20.5714 13.2353H3.42857C3.42857 12.7673 3.24796 12.3184 2.92647 11.9875C2.60498 11.6565 2.16894 11.4706 1.71429 11.4706V3.52941C2.16894 3.52941 2.60498 3.34349 2.92647 3.01254C3.24796 2.68159 3.42857 2.23273 3.42857 1.76471ZM12 3.52941C10.1049 3.52941 8.57143 5.30824 8.57143 7.5C8.57143 9.69176 10.1049 11.4706 12 11.4706C13.8951 11.4706 15.4286 9.69176 15.4286 7.5C15.4286 5.30824 13.8951 3.52941 12 3.52941ZM12 5.29412C12.9446 5.29412 13.7143 6.28324 13.7143 7.5C13.7143 8.71676 12.9446 9.70588 12 9.70588C11.0554 9.70588 10.2857 8.71676 10.2857 7.5C10.2857 6.28324 11.0554 5.29412 12 5.29412ZM5.57143 6.17647C5.40253 6.17653 5.2353 6.21083 5.07928 6.27742C4.92326 6.34401 4.7815 6.44158 4.66211 6.56456C4.54272 6.68755 4.44803 6.83353 4.38345 6.99419C4.31887 7.15484 4.28566 7.32702 4.28571 7.50088C4.28577 7.67475 4.31909 7.8469 4.38378 8.00751C4.44847 8.16812 4.54325 8.31404 4.66272 8.43694C4.78219 8.55984 4.924 8.65732 5.08007 8.7238C5.23613 8.79028 5.40339 8.82447 5.57229 8.82441C5.91339 8.82429 6.24048 8.68469 6.4816 8.43632C6.72272 8.18794 6.85811 7.85114 6.858 7.5C6.85789 7.14886 6.72227 6.81215 6.48099 6.56394C6.23972 6.31573 5.91253 6.17635 5.57143 6.17647ZM18.4286 6.17647C18.2597 6.17653 18.0924 6.21083 17.9364 6.27742C17.7804 6.34401 17.6386 6.44158 17.5193 6.56456C17.3999 6.68755 17.3052 6.83353 17.2406 6.99419C17.176 7.15484 17.1428 7.32702 17.1429 7.50088C17.1429 7.67475 17.1762 7.8469 17.2409 8.00751C17.3056 8.16812 17.4004 8.31404 17.5199 8.43694C17.6393 8.55984 17.7811 8.65732 17.9372 8.7238C18.0933 8.79028 18.2605 8.82447 18.4294 8.82441C18.7705 8.82429 19.0976 8.68469 19.3387 8.43632C19.5799 8.18794 19.7153 7.85114 19.7151 7.5C19.715 7.14886 19.5794 6.81215 19.3381 6.56394C19.0969 6.31573 18.7697 6.17635 18.4286 6.17647Z" fill="white"/>
</svg>
