<svg width="95" height="94" viewBox="0 0 95 94" fill="none" xmlns="http://www.w3.org/2000/svg">
<path d="M74.2529 46.6828C85.5358 46.6828 94.6824 41.4931 94.6824 35.0914C94.6824 28.6896 85.5358 23.5 74.2529 23.5C62.9701 23.5 53.8235 28.6896 53.8235 35.0914C53.8235 41.4931 62.9701 46.6828 74.2529 46.6828Z" fill="white"/>
<path fill-rule="evenodd" clip-rule="evenodd" d="M74.5588 53.3509C59.9471 53.3509 54.1294 47.235 54.1294 43.6924V58.8675C54.1294 65.2713 63.2765 70.453 74.5588 70.453C85.853 70.453 95 65.2713 95 58.8675V44.0566C95 47.6051 89.1765 53.3509 74.5588 53.3509Z" fill="white"/>
<path fill-rule="evenodd" clip-rule="evenodd" d="M74.5588 76.798C61.4882 76.798 54.1294 70.9171 54.1294 67.3745V82.4086C54.1294 88.8124 63.2765 94 74.5588 94C85.853 94 95 88.8124 95 82.4086V67.1924C95 70.735 87.6353 76.798 74.5588 76.798Z" fill="white"/>
<path d="M24.0412 23.1827C36.8314 23.1827 47.2 17.9931 47.2 11.5914C47.2 5.18964 36.8314 0 24.0412 0C11.2509 0 0.882355 5.18964 0.882355 11.5914C0.882355 17.9931 11.2509 23.1827 24.0412 23.1827Z" fill="white"/>
<path fill-rule="evenodd" clip-rule="evenodd" d="M24.7765 29.8509C8.21764 29.8509 1.61765 23.735 1.61765 20.1924V35.3675C1.61765 41.7713 11.9882 46.953 24.7765 46.953C37.5765 46.953 47.9412 41.7713 47.9412 35.3675V20.5566C47.9412 24.1051 41.3353 29.8509 24.7765 29.8509Z" fill="white"/>
<path fill-rule="evenodd" clip-rule="evenodd" d="M24.7765 53.298C9.95882 53.298 1.61765 47.4171 1.61765 43.8745V58.9086C1.61765 65.3124 11.9882 70.5 24.7765 70.5C37.5765 70.5 47.9412 65.3124 47.9412 58.9086V43.6924C47.9412 47.235 39.5882 53.298 24.7765 53.298Z" fill="white"/>
<path fill-rule="evenodd" clip-rule="evenodd" d="M24.7765 76.798C9.95882 76.798 1.61765 70.9171 1.61765 67.3745V82.4086C1.61765 88.8124 11.9882 94 24.7765 94C37.5765 94 47.9412 88.8124 47.9412 82.4086V67.1924C47.9412 70.735 39.5882 76.798 24.7765 76.798Z" fill="white"/>
</svg>
