<svg width="44" height="44" viewBox="0 0 44 44" fill="none" xmlns="http://www.w3.org/2000/svg">
<path d="M34.3008 21.8242C39.5755 21.8242 43.8515 19.3981 43.8515 16.4052C43.8515 13.4124 39.5755 10.9863 34.3008 10.9863C29.026 10.9863 24.75 13.4124 24.75 16.4052C24.75 19.3981 29.026 21.8242 34.3008 21.8242Z" fill="#355A97"/>
<path fill-rule="evenodd" clip-rule="evenodd" d="M34.4438 24.9416C27.6128 24.9416 24.8931 22.0824 24.8931 20.4262V27.5206C24.8931 30.5143 29.1693 32.9368 34.4438 32.9368C39.7238 32.9368 44.0001 30.5143 44.0001 27.5206V20.5965C44.0001 22.2554 41.2776 24.9416 34.4438 24.9416Z" fill="#355A97"/>
<path fill-rule="evenodd" clip-rule="evenodd" d="M34.4438 35.9031C28.3333 35.9031 24.8931 33.1538 24.8931 31.4976V38.5261C24.8931 41.5198 29.1693 43.945 34.4438 43.945C39.7238 43.945 44.0001 41.5198 44.0001 38.5261V31.4125C44.0001 33.0687 40.5571 35.9031 34.4438 35.9031Z" fill="#355A97"/>
<path d="M10.8268 10.8379C16.8062 10.8379 21.6535 8.41178 21.6535 5.41897C21.6535 2.42615 16.8062 0 10.8268 0C4.8473 0 0 2.42615 0 5.41897C0 8.41178 4.8473 10.8379 10.8268 10.8379Z" fill="#355A97"/>
<path fill-rule="evenodd" clip-rule="evenodd" d="M11.1705 13.9553C3.42925 13.9553 0.34375 11.0961 0.34375 9.43994V16.5343C0.34375 19.5281 5.192 21.9505 11.1705 21.9505C17.1545 21.9505 22 19.5281 22 16.5343V9.61023C22 11.2692 18.9118 13.9553 11.1705 13.9553Z" fill="#355A97"/>
<path fill-rule="evenodd" clip-rule="evenodd" d="M11.1705 24.9168C4.24325 24.9168 0.34375 22.1675 0.34375 20.5114V27.5398C0.34375 30.5336 5.192 32.9588 11.1705 32.9588C17.1545 32.9588 22 30.5336 22 27.5398V20.4262C22 22.0824 18.095 24.9168 11.1705 24.9168Z" fill="#355A97"/>
<path fill-rule="evenodd" clip-rule="evenodd" d="M11.1705 35.9031C4.24325 35.9031 0.34375 33.1538 0.34375 31.4976V38.5261C0.34375 41.5198 5.192 43.945 11.1705 43.945C17.1545 43.945 22 41.5198 22 38.5261V31.4125C22 33.0687 18.095 35.9031 11.1705 35.9031Z" fill="#355A97"/>
</svg>
