<svg width="20" height="20" viewBox="0 0 20 20" fill="none" xmlns="http://www.w3.org/2000/svg">
<path fill-rule="evenodd" clip-rule="evenodd" d="M20 10C20 12.6522 18.9464 15.1957 17.0711 17.0711C15.1957 18.9464 12.6522 20 10 20C7.34784 20 4.8043 18.9464 2.92893 17.0711C1.05357 15.1957 0 12.6522 0 10C0 7.34784 1.05357 4.8043 2.92893 2.92893C4.8043 1.05357 7.34784 0 10 0C12.6522 0 15.1957 1.05357 17.0711 2.92893C18.9464 4.8043 20 7.34784 20 10ZM10.625 6.25C10.625 6.08424 10.5592 5.92527 10.4419 5.80806C10.3247 5.69085 10.1658 5.625 10 5.625C9.83424 5.625 9.67527 5.69085 9.55806 5.80806C9.44085 5.92527 9.375 6.08424 9.375 6.25V12.2413L6.6925 9.5575C6.63439 9.49939 6.5654 9.45329 6.48948 9.42185C6.41356 9.3904 6.33218 9.37421 6.25 9.37421C6.16782 9.37421 6.08644 9.3904 6.01052 9.42185C5.9346 9.45329 5.86561 9.49939 5.8075 9.5575C5.74939 9.61561 5.70329 9.6846 5.67185 9.76052C5.6404 9.83644 5.62421 9.91782 5.62421 10C5.62421 10.0822 5.6404 10.1636 5.67185 10.2395C5.70329 10.3154 5.74939 10.3844 5.8075 10.4425L9.5575 14.1925C9.61556 14.2507 9.68453 14.2969 9.76046 14.3284C9.83639 14.3599 9.91779 14.3761 10 14.3761C10.0822 14.3761 10.1636 14.3599 10.2395 14.3284C10.3155 14.2969 10.3844 14.2507 10.4425 14.1925L14.1925 10.4425C14.3099 10.3251 14.3758 10.166 14.3758 10C14.3758 9.83403 14.3099 9.67486 14.1925 9.5575C14.0751 9.44014 13.916 9.37421 13.75 9.37421C13.584 9.37421 13.4249 9.44014 13.3075 9.5575L10.625 12.2413V6.25Z" fill="white"/>
</svg>
