<svg width="44" height="52" viewBox="0 0 44 52" fill="none" xmlns="http://www.w3.org/2000/svg">
<path d="M43.4124 9.98204C43.2164 9.75751 42.9762 9.57597 42.707 9.44879C42.4378 9.3216 42.1453 9.25152 41.8478 9.2429C37.2264 9.12173 31.3786 4.16585 27.5123 2.22106C25.1241 1.02349 23.5473 0.233862 22.3633 0.0258526C22.1229 -0.00928167 21.8786 -0.00860115 21.6384 0.0278722C20.4543 0.235882 18.8776 1.02551 16.4914 2.22308C12.6251 4.16585 6.7773 9.12173 2.15587 9.2429C1.85819 9.25196 1.56553 9.32224 1.29604 9.44938C1.02655 9.57653 0.785971 9.75783 0.589215 9.98204C0.181387 10.4448 -0.0290309 11.0496 0.00322988 11.6663C0.995981 31.9079 8.23521 44.4349 20.9376 51.7152C21.2678 51.9031 21.6343 52 21.9988 52C22.3633 52 22.7298 51.9031 23.062 51.7152C35.7644 44.4349 43.0016 31.9079 43.9964 11.6663C44.0305 11.0497 43.8207 10.4444 43.4124 9.98204ZM33.3117 17.943L22.5928 33.8062C22.2082 34.3757 21.6041 34.7534 21.0061 34.7534C20.406 34.7534 19.7394 34.4242 19.3186 34.0021L11.7632 26.4229C11.5165 26.1746 11.378 25.8384 11.378 25.4879C11.378 25.1373 11.5165 24.8011 11.7632 24.5528L13.6299 22.6767C13.878 22.4303 14.2131 22.2921 14.5622 22.2921C14.9114 22.2921 15.2465 22.4303 15.4946 22.6767L20.408 27.6043L28.944 14.9682C29.1415 14.6791 29.4451 14.48 29.7884 14.4146C30.1318 14.3491 30.487 14.4225 30.7765 14.6188L32.9614 16.1052C33.25 16.303 33.4489 16.6073 33.5145 16.9516C33.5802 17.2959 33.5073 17.6524 33.3117 17.943Z" fill="#355A97"/>
</svg>
