<svg width="44" height="45" viewBox="0 0 44 45" fill="none" xmlns="http://www.w3.org/2000/svg">
<path d="M43.4558 19.6011L38.5377 18.1344C38.1976 16.9483 37.73 15.8026 37.143 14.7171L39.5506 10.2145C39.641 10.0445 39.6741 9.84997 39.645 9.65974C39.6159 9.46951 39.5262 9.29372 39.3892 9.15846L35.8804 5.63848C35.745 5.5016 35.569 5.41197 35.3786 5.38291C35.1882 5.35385 34.9935 5.38689 34.8234 5.47715L30.3457 7.8678C29.2484 7.25277 28.0864 6.7609 26.8809 6.40114L25.4128 1.5465C25.3507 1.36759 25.2334 1.21298 25.0778 1.10492C24.9221 0.996863 24.7362 0.940929 24.5467 0.945171H19.5845C19.3938 0.946058 19.2084 1.0077 19.0553 1.12113C18.9021 1.23456 18.7892 1.39386 18.733 1.57583L17.2649 6.41581C16.0493 6.77364 14.8774 7.26556 13.7708 7.88247L9.36649 5.50648C9.19636 5.41623 9.00164 5.38318 8.81122 5.41224C8.6208 5.4413 8.44484 5.53093 8.30945 5.66781L4.74197 9.1438C4.60495 9.27905 4.51523 9.45484 4.48614 9.64507C4.45705 9.8353 4.49013 10.0298 4.58048 10.1998L6.9588 14.5998C6.34228 15.7006 5.8499 16.8664 5.4907 18.0758L0.631284 19.5424C0.449126 19.5986 0.289674 19.7114 0.176133 19.8644C0.0625918 20.0174 0.000887575 20.2026 0 20.3931V25.3504C0.000887575 25.5408 0.0625918 25.726 0.176133 25.879C0.289674 26.032 0.449126 26.1448 0.631284 26.201L5.52006 27.6677C5.88319 28.8569 6.37549 30.0028 6.98816 31.085L4.58048 35.6903C4.49013 35.8603 4.45705 36.0548 4.48614 36.245C4.51523 36.4353 4.60495 36.6111 4.74197 36.7463L8.25073 40.2516C8.38612 40.3885 8.56208 40.4781 8.7525 40.5072C8.94291 40.5363 9.13764 40.5032 9.30776 40.413L13.8442 37.993C14.9173 38.5715 16.0493 39.0337 17.2208 39.3716L18.6889 44.3143C18.7452 44.4963 18.8581 44.6556 19.0112 44.769C19.1644 44.8824 19.3498 44.9441 19.5404 44.9449H24.5026C24.6933 44.9441 24.8786 44.8824 25.0318 44.769C25.1849 44.6556 25.2979 44.4963 25.3541 44.3143L26.8222 39.357C27.9837 39.0172 29.1058 38.5551 30.1695 37.9783L34.7353 40.413C34.9054 40.5032 35.1001 40.5363 35.2905 40.5072C35.481 40.4781 35.6569 40.3885 35.7923 40.2516L39.3011 36.7463C39.4381 36.6111 39.5278 36.4353 39.5569 36.245C39.586 36.0548 39.5529 35.8603 39.4626 35.6903L37.0255 31.1437C37.6089 30.077 38.0764 28.951 38.4202 27.785L43.3677 26.3184C43.5499 26.2622 43.7093 26.1494 43.8229 25.9964C43.9364 25.8434 43.9981 25.6582 43.999 25.4677V20.4664C44.0077 20.284 43.9603 20.1034 43.8632 19.9487C43.7661 19.794 43.6239 19.6727 43.4558 19.6011ZM22.0656 31.0117C20.4686 31.0117 18.9074 30.5386 17.5796 29.6522C16.2517 28.7658 15.2168 27.506 14.6056 26.032C13.9945 24.558 13.8346 22.9361 14.1462 21.3713C14.4577 19.8066 15.2267 18.3692 16.356 17.2411C17.4852 16.113 18.924 15.3447 20.4903 15.0334C22.0566 14.7222 23.6801 14.8819 25.1556 15.4925C26.631 16.103 27.8921 17.1369 28.7793 18.4635C29.6666 19.79 30.1401 21.3496 30.1401 22.9451C30.1401 25.0845 29.2894 27.1362 27.7751 28.649C26.2609 30.1618 24.2071 31.0117 22.0656 31.0117Z" fill="#355A97"/>
</svg>
