<svg width="32" height="32" viewBox="0 0 32 32" fill="none" xmlns="http://www.w3.org/2000/svg">
<path d="M24 3.3C21.65 1.85 18.95 1 16 1V3.3H24Z" fill="#ED4C5C"/>
<path d="M16 5.59999H26.8C25.95 4.74999 25 3.94999 24 3.29999H16V5.59999Z" fill="white"/>
<path d="M16 7.90001H28.65C28.1 7.05001 27.5 6.30001 26.85 5.60001H16V7.90001Z" fill="#ED4C5C"/>
<path d="M16 10.2H29.85C29.5 9.39999 29.1 8.59999 28.65 7.89999H16V10.2Z" fill="white"/>
<path d="M16 12.5H30.6C30.4 11.7 30.15 10.95 29.85 10.2H16V12.5Z" fill="#ED4C5C"/>
<path d="M16 14.85H30.95C30.9 14.05 30.75 13.3 30.6 12.55H16V14.85Z" fill="white"/>
<path d="M30.95 14.85H16V16H1C1 16.4 1 16.75 1.05 17.15H30.95C31 16.75 31 16.4 31 16C31 15.6 31 15.2 30.95 14.85Z" fill="#ED4C5C"/>
<path d="M1.40005 19.45H30.6C30.8001 18.7 30.9001 17.95 30.9501 17.15H1.05005C1.10005 17.9 1.25005 18.7 1.40005 19.45Z" fill="white"/>
<path d="M2.15002 21.75H29.85C30.15 21 30.4 20.25 30.6 19.45H1.40002C1.60002 20.25 1.85002 21 2.15002 21.75Z" fill="#ED4C5C"/>
<path d="M3.35002 24.05H28.65C29.1 23.3 29.5 22.55 29.85 21.75H2.15002C2.50002 22.55 2.90002 23.3 3.35002 24.05Z" fill="white"/>
<path d="M5.14998 26.35H26.85C27.5 25.65 28.15 24.85 28.65 24.05H3.34998C3.84998 24.9 4.49998 25.65 5.14998 26.35Z" fill="#ED4C5C"/>
<path d="M7.95002 28.65H24.05C25.1 28 26 27.2 26.85 26.35H5.15002C6.00002 27.25 6.95002 28 7.95002 28.65Z" fill="white"/>
<path d="M16 31C18.95 31 21.6999 30.15 24.0499 28.65H7.94995C10.3 30.15 13.05 31 16 31Z" fill="#ED4C5C"/>
<path d="M8 3.3C6.95 3.95 6 4.75 5.15 5.6C4.45 6.3 3.85 7.1 3.35 7.9C2.9 8.65 2.45 9.4 2.15 10.2C1.85 10.95 1.6 11.7 1.4 12.5C1.2 13.25 1.1 14 1.05 14.8C1 15.2 1 15.6 1 16H16V1C13.05 1 10.35 1.85 8 3.3Z" fill="#428BC1"/>
<path d="M12.5 1.5L12.75 2.25H13.5L12.9 2.75L13.1 3.5L12.5 3.05L11.9 3.5L12.1 2.75L11.5 2.25H12.25L12.5 1.5Z" fill="white"/>
<path d="M14.5 4.5L14.75 5.25H15.5L14.9 5.75L15.1 6.5L14.5 6.05L13.9 6.5L14.1 5.75L13.5 5.25H14.25L14.5 4.5Z" fill="white"/>
<path d="M10.5 4.5L10.75 5.25H11.5L10.9 5.75L11.1 6.5L10.5 6.05L9.9 6.5L10.1 5.75L9.5 5.25H10.25L10.5 4.5Z" fill="white"/>
<path d="M12.5 7.5L12.75 8.25H13.5L12.9 8.75L13.1 9.5L12.5 9.05L11.9 9.5L12.1 8.75L11.5 8.25H12.25L12.5 7.5Z" fill="white"/>
<path d="M8.5 7.5L8.75 8.25H9.5L8.9 8.75L9.1 9.5L8.5 9.05L7.9 9.5L8.1 8.75L7.5 8.25H8.25L8.5 7.5Z" fill="white"/>
<path d="M4.5 7.5L4.75 8.25H5.5L4.9 8.75L5.1 9.5L4.5 9.05L3.9 9.5L4.1 8.75L3.5 8.25H4.25L4.5 7.5Z" fill="white"/>
<path d="M14.5 10.5L14.75 11.25H15.5L14.9 11.75L15.1 12.5L14.5 12.05L13.9 12.5L14.1 11.75L13.5 11.25H14.25L14.5 10.5Z" fill="white"/>
<path d="M10.5 10.5L10.75 11.25H11.5L10.9 11.75L11.1 12.5L10.5 12.05L9.9 12.5L10.1 11.75L9.5 11.25H10.25L10.5 10.5Z" fill="white"/>
<path d="M6.5 10.5L6.75 11.25H7.5L6.9 11.75L7.1 12.5L6.5 12.05L5.9 12.5L6.1 11.75L5.5 11.25H6.25L6.5 10.5Z" fill="white"/>
<path d="M12.5 13.5L12.75 14.25H13.5L12.9 14.75L13.1 15.5L12.5 15.05L11.9 15.5L12.1 14.75L11.5 14.25H12.25L12.5 13.5Z" fill="white"/>
<path d="M8.5 13.5L8.75 14.25H9.5L8.9 14.75L9.1 15.5L8.5 15.05L7.9 15.5L8.1 14.75L7.5 14.25H8.25L8.5 13.5Z" fill="white"/>
<path d="M4.5 13.5L4.75 14.25H5.5L4.9 14.75L5.1 15.5L4.5 15.05L3.9 15.5L4.1 14.75L3.5 14.25H4.25L4.5 13.5Z" fill="white"/>
<path d="M5.89993 6.5L6.49993 6.05L7.09993 6.5L6.84993 5.75L7.44993 5.25H6.69993L6.49993 4.5L6.24993 5.25H5.54993L6.14993 5.7L5.89993 6.5Z" fill="white"/>
<path d="M1.89995 12.5L2.49995 12.05L3.09995 12.5L2.84995 11.75L3.44995 11.25H2.74995L2.49995 10.5L2.24995 11.25H1.74995C1.74995 11.3 1.69995 11.35 1.69995 11.4L2.09995 11.7L1.89995 12.5Z" fill="white"/>
</svg>
